<?xml version="1.0" encoding="UTF-8"?>
<!DOCTYPE svg PUBLIC "-//W3C//DTD SVG 1.1//EN" "http://www.w3.org/Graphics/SVG/1.1/DTD/svg11.dtd">
<svg xmlns="http://www.w3.org/2000/svg" version="1.1" width="500px" height="500px" style="shape-rendering:geometricPrecision; text-rendering:geometricPrecision; image-rendering:optimizeQuality; fill-rule:evenodd; clip-rule:evenodd" xmlns:xlink="http://www.w3.org/1999/xlink">
<g><path style="opacity:1" fill="#304852" d="M 111.5,35.5 C 120.296,34.5614 128.629,35.8948 136.5,39.5C 137.799,41.1534 137.466,42.6534 135.5,44C 106.428,53.7625 82.9284,70.9291 65,95.5C 62.9495,97.8878 60.6162,99.8878 58,101.5C 56.7387,101.241 55.7387,100.574 55,99.5C 55.7117,74.4576 66.8784,55.6243 88.5,43C 95.7545,39.1928 103.421,36.6928 111.5,35.5 Z"/></g>
<g><path style="opacity:1" fill="#2c444e" d="M 225.5,34.5 C 301.718,32.0362 365.218,59.0362 416,115.5C 467.347,172.247 489.68,238.914 483,315.5C 477.622,354.093 460.789,386.593 432.5,413C 387.318,454.079 333.985,476.079 272.5,479C 223.106,482.796 175.106,476.462 128.5,460C 60.5348,430.654 24.7015,378.82 21,304.5C 17.1472,251.129 25.4805,199.795 46,150.5C 62.4999,113.334 88.6666,85.1674 124.5,66C 156.121,48.5127 189.787,38.0127 225.5,34.5 Z"/></g>
<g><path style="opacity:1" fill="#56696f" d="M 111.5,35.5 C 119.171,33.9029 126.837,34.4029 134.5,37C 135.381,37.7083 136.047,38.5416 136.5,39.5C 128.629,35.8948 120.296,34.5614 111.5,35.5 Z"/></g>
<g><path style="opacity:1" fill="#169c8f" d="M 356.5,101.5 C 357.458,100.038 358.624,98.7051 360,97.5C 360.829,92.467 360.662,87.467 359.5,82.5C 353.271,86.1137 346.938,89.447 340.5,92.5C 344.426,89.1931 348.76,86.3597 353.5,84C 355.914,82.1151 358.581,81.4484 361.5,82C 362.635,86.7477 362.802,91.581 362,96.5C 360.924,99.079 359.091,100.746 356.5,101.5 Z"/></g>
<g><path style="opacity:1" fill="#13b19f" d="M 340.5,92.5 C 338.664,94.588 336.331,95.9213 333.5,96.5C 335.336,94.412 337.669,93.0787 340.5,92.5 Z"/></g>
<g><path style="opacity:1" fill="#13b09c" d="M 333.5,96.5 C 330.024,99.6232 326.024,101.957 321.5,103.5C 324.976,100.377 328.976,98.0435 333.5,96.5 Z"/></g>
<g><path style="opacity:1" fill="#13b29c" d="M 365.5,98.5 C 366.364,99.6883 367.364,100.855 368.5,102C 367.333,102.5 366.5,103.333 366,104.5C 365.5,103.333 364.667,102.5 363.5,102C 364.823,101.184 365.489,100.017 365.5,98.5 Z"/></g>
<g><path style="opacity:1" fill="#14b09e" d="M 356.5,101.5 C 353.024,104.623 349.024,106.957 344.5,108.5C 347.976,105.377 351.976,103.043 356.5,101.5 Z"/></g>
<g><path style="opacity:1" fill="#12b19d" d="M 321.5,103.5 C 319.664,105.588 317.331,106.921 314.5,107.5C 316.336,105.412 318.669,104.079 321.5,103.5 Z"/></g>
<g><path style="opacity:1" fill="#1a3037" d="M 134.5,111.5 C 130.187,111.548 126.187,112.715 122.5,115C 115.459,118.424 109.292,122.924 104,128.5C 103,130.833 102,133.167 101,135.5C 99.6429,145.724 97.4762,155.724 94.5,165.5C 91.7516,170.666 88.7516,175.666 85.5,180.5C 82.0818,183.439 79.5818,187.106 78,191.5C 77.3333,198.167 77.3333,204.833 78,211.5C 78.6972,213.584 79.8639,215.251 81.5,216.5C 83.6782,218.858 85.3449,221.525 86.5,224.5C 83.7578,244.105 81.4244,263.772 79.5,283.5C 79.5702,290.443 80.9035,297.11 83.5,303.5C 80.0064,301.5 77.8397,298.5 77,294.5C 76.3355,289.851 75.8355,285.184 75.5,280.5C 77.7928,261.324 80.1261,242.158 82.5,223C 80.1214,218.273 77.288,213.773 74,209.5C 73.3333,202.5 73.3333,195.5 74,188.5C 79.3333,180.5 84.6667,172.5 90,164.5C 93.4681,154.106 95.8014,143.439 97,132.5C 98.7108,126.564 102.211,122.064 107.5,119C 112.833,116 118.167,113 123.5,110C 126.5,109.333 129.5,109.333 132.5,110C 133.416,110.278 134.082,110.778 134.5,111.5 Z"/></g>
<g><path style="opacity:1" fill="#12ae9b" d="M 344.5,108.5 C 338.666,112.921 332.332,116.588 325.5,119.5C 331.334,115.079 337.668,111.412 344.5,108.5 Z"/></g>
<g><path style="opacity:1" fill="#025c4d" d="M 134.5,111.5 C 137.032,112.596 139.365,113.929 141.5,115.5C 131.434,117.032 122.434,121.032 114.5,127.5C 112.482,129.35 110.649,131.35 109,133.5C 106.676,143.813 104.342,154.146 102,164.5C 101.392,166.066 100.558,167.4 99.5,168.5C 98.3406,166.75 96.674,165.75 94.5,165.5C 97.4762,155.724 99.6429,145.724 101,135.5C 102,133.167 103,130.833 104,128.5C 109.292,122.924 115.459,118.424 122.5,115C 126.187,112.715 130.187,111.548 134.5,111.5 Z"/></g>
<g><path style="opacity:1" fill="#177675" d="M 360.5,111.5 C 361.167,131.833 361.833,152.167 362.5,172.5C 362.672,173.492 362.338,174.158 361.5,174.5C 361.5,173.833 361.167,173.5 360.5,173.5C 360.5,152.833 360.5,132.167 360.5,111.5 Z"/></g>
<g><path style="opacity:1" fill="#12b49f" d="M 362.5,172.5 C 361.833,152.167 361.167,131.833 360.5,111.5C 360.265,110.903 359.765,110.57 359,110.5C 357.2,111.32 355.366,111.986 353.5,112.5C 355.089,110.694 357.089,109.361 359.5,108.5C 360.478,108.977 361.311,109.643 362,110.5C 362.5,131.164 362.667,151.831 362.5,172.5 Z"/></g>
<g><path style="opacity:1" fill="#1f887e" d="M 371.5,108.5 C 375.138,107.737 376.638,109.07 376,112.5C 372.331,114.009 370.831,112.676 371.5,108.5 Z"/></g>
<g><path style="opacity:1" fill="#016f5e" d="M 141.5,115.5 C 143.975,116.687 144.975,118.687 144.5,121.5C 144.66,123.199 144.494,124.866 144,126.5C 138.679,128.816 135.512,132.816 134.5,138.5C 133.167,138.5 131.833,138.5 130.5,138.5C 130.187,142.042 130.521,145.375 131.5,148.5C 131.195,153.762 131.529,158.928 132.5,164C 125.36,168.312 118.36,172.812 111.5,177.5C 111.833,177.833 112.167,178.167 112.5,178.5C 118.997,175.086 125.33,171.419 131.5,167.5C 132.478,167.977 133.311,168.643 134,169.5C 134.717,173.045 134.55,176.545 133.5,180C 133.095,180.945 132.428,181.612 131.5,182C 125.277,183.779 119.277,186.112 113.5,189C 112.619,189.708 111.953,190.542 111.5,191.5C 110.791,192.404 109.791,192.737 108.5,192.5C 107.5,192.5 106.5,192.5 105.5,192.5C 104.875,185.748 103.708,179.081 102,172.5C 101.148,171.429 100.315,170.429 99.5,169.5C 99.5,169.167 99.5,168.833 99.5,168.5C 100.558,167.4 101.392,166.066 102,164.5C 104.342,154.146 106.676,143.813 109,133.5C 110.649,131.35 112.482,129.35 114.5,127.5C 122.434,121.032 131.434,117.032 141.5,115.5 Z"/></g>
<g><path style="opacity:1" fill="#13b19e" d="M 353.5,112.5 C 351.664,114.588 349.331,115.921 346.5,116.5C 348.336,114.412 350.669,113.079 353.5,112.5 Z"/></g>
<g><path style="opacity:1" fill="#1c2e35" d="M 202.5,118.5 C 204.727,121.385 205.06,124.552 203.5,128C 205.414,129.76 206.747,131.927 207.5,134.5C 206.935,136.405 205.935,138.071 204.5,139.5C 207.052,145.616 205.385,149.95 199.5,152.5C 199.813,148.958 199.479,145.625 198.5,142.5C 198.631,141.761 198.464,141.094 198,140.5C 185.602,145.042 173.602,144.042 162,137.5C 161.321,141.878 160.488,146.211 159.5,150.5C 157.784,150.371 156.117,150.038 154.5,149.5C 153.508,149.672 152.842,149.338 152.5,148.5C 152.464,131.542 160.797,122.209 177.5,120.5C 179.857,120.663 182.19,120.497 184.5,120C 189,116.572 194,115.238 199.5,116C 200.373,117.045 201.373,117.878 202.5,118.5 Z"/></g>
<g><path style="opacity:1" fill="#13ad9a" d="M 314.5,107.5 C 306.355,113.291 297.688,118.291 288.5,122.5C 296.645,116.709 305.312,111.709 314.5,107.5 Z"/></g>
<g><path style="opacity:1" fill="#067f6e" d="M 177.5,120.5 C 160.797,122.209 152.464,131.542 152.5,148.5C 150.5,148.5 148.5,148.5 146.5,148.5C 146.097,135.28 151.763,125.946 163.5,120.5C 169.29,118.479 175.29,117.979 181.5,119C 179.942,119.21 178.609,119.71 177.5,120.5 Z"/></g>
<g><path style="opacity:1" fill="#18545b" d="M 260.5,139.5 C 260.176,142.68 261.51,143.847 264.5,143C 265.056,142.617 265.389,142.117 265.5,141.5C 266.833,141.833 268.167,142.167 269.5,142.5C 268.079,148.113 270.079,150.28 275.5,149C 277.692,148.074 279.692,146.907 281.5,145.5C 281.5,146.5 281.5,147.5 281.5,148.5C 283.621,148.325 285.621,148.659 287.5,149.5C 285.651,150.593 283.984,151.926 282.5,153.5C 277.345,155.158 273.178,158.158 270,162.5C 269.333,183.833 269.333,205.167 270,226.5C 273.392,228.056 276.225,227.389 278.5,224.5C 281.331,223.921 283.664,222.588 285.5,220.5C 288.331,219.921 290.664,218.588 292.5,216.5C 299.332,213.588 305.666,209.921 311.5,205.5C 314.331,204.921 316.664,203.588 318.5,201.5C 321.331,200.921 323.664,199.588 325.5,197.5C 327.674,197.25 329.341,196.25 330.5,194.5C 333.331,193.921 335.664,192.588 337.5,190.5C 344.332,187.588 350.666,183.921 356.5,179.5C 358.411,178.925 360.078,177.925 361.5,176.5C 363.214,178.087 365.214,179.421 367.5,180.5C 372.422,181.805 377.089,183.471 381.5,185.5C 344.141,206.354 306.808,227.52 269.5,249C 265.92,251.277 262.586,253.777 259.5,256.5C 258.922,259.28 258.255,261.947 257.5,264.5C 257.631,263.761 257.464,263.094 257,262.5C 254.722,263.719 252.555,265.052 250.5,266.5C 234.632,261.1 218.632,256.1 202.5,251.5C 202.073,247.176 201.739,242.842 201.5,238.5C 201.2,224.686 199.7,211.02 197,197.5C 196.167,195.833 195.333,194.167 194.5,192.5C 192.098,190.098 189.764,187.764 187.5,185.5C 189.129,184.375 190.629,183.041 192,181.5C 193.424,178.352 194.924,175.352 196.5,172.5C 199.044,173.708 200.378,175.708 200.5,178.5C 196.25,179.558 194.916,182.058 196.5,186C 199.967,185.361 201.967,183.194 202.5,179.5C 203.582,174.535 201.582,171.202 196.5,169.5C 196.414,168.504 196.748,167.671 197.5,167C 195.167,166.667 192.833,166.333 190.5,166C 189.748,165.329 189.414,164.496 189.5,163.5C 191.922,165.65 194.589,165.983 197.5,164.5C 198.434,163.432 198.768,162.099 198.5,160.5C 198.5,158.833 198.5,157.167 198.5,155.5C 199.11,154.609 199.443,153.609 199.5,152.5C 205.385,149.95 207.052,145.616 204.5,139.5C 205.935,138.071 206.935,136.405 207.5,134.5C 206.747,131.927 205.414,129.76 203.5,128C 205.06,124.552 204.727,121.385 202.5,118.5C 202.435,118.062 202.601,117.728 203,117.5C 222.179,124.727 241.345,132.061 260.5,139.5 Z"/></g>
<g><path style="opacity:1" fill="#193138" d="M 163.5,120.5 C 151.763,125.946 146.097,135.28 146.5,148.5C 145.833,148.5 145.5,148.833 145.5,149.5C 144.833,149.5 144.167,149.5 143.5,149.5C 142.988,143.612 143.655,137.945 145.5,132.5C 147.684,129.175 149.684,125.675 151.5,122C 155.405,119.511 159.405,119.011 163.5,120.5 Z"/></g>
<g><path style="opacity:1" fill="#284a52" d="M 356.5,101.5 C 351.976,103.043 347.976,105.377 344.5,108.5C 337.668,111.412 331.334,115.079 325.5,119.5C 322.669,120.079 320.336,121.412 318.5,123.5C 309.312,127.709 300.645,132.709 292.5,138.5C 285.61,142.112 278.61,145.445 271.5,148.5C 271.103,143.041 271.603,137.708 273,132.5C 278.487,129.516 283.653,126.183 288.5,122.5C 297.688,118.291 306.355,113.291 314.5,107.5C 317.331,106.921 319.664,105.588 321.5,103.5C 326.024,101.957 330.024,99.6232 333.5,96.5C 336.331,95.9213 338.664,94.588 340.5,92.5C 346.938,89.447 353.271,86.1137 359.5,82.5C 360.662,87.467 360.829,92.467 360,97.5C 358.624,98.7051 357.458,100.038 356.5,101.5 Z"/></g>
<g><path style="opacity:1" fill="#12b6a2" d="M 324.5,106.5 C 325.586,106.62 326.253,107.287 326.5,108.5C 326.085,110.909 325.418,113.242 324.5,115.5C 323.197,114.282 322.197,114.615 321.5,116.5C 320.571,115.311 320.238,113.978 320.5,112.5C 318.897,112.312 317.563,112.812 316.5,114C 317.167,114.333 317.833,114.667 318.5,115C 315.707,117.734 316.041,118.734 319.5,118C 318.335,119.084 317.002,119.917 315.5,120.5C 312.982,114.796 314.649,111.129 320.5,109.5C 321.192,110.025 321.692,110.692 322,111.5C 323.438,110.1 324.271,108.433 324.5,106.5 Z"/></g>
<g><path style="opacity:1" fill="#0fc9af" d="M 312.5,113.5 C 313.803,116.355 313.803,119.355 312.5,122.5C 310.041,118.65 308.874,119.316 309,124.5C 308.182,121.773 308.348,119.106 309.5,116.5C 310.086,116.709 310.586,117.043 311,117.5C 311.41,116.099 311.91,114.766 312.5,113.5 Z"/></g>
<g><path style="opacity:1" fill="#10c2aa" d="M 331.5,102.5 C 332.5,102.5 333.5,102.5 334.5,102.5C 334.663,104.857 334.497,107.19 334,109.5C 332.89,111.037 331.39,111.703 329.5,111.5C 329.065,108.162 329.732,105.162 331.5,102.5 Z"/></g>
<g><path style="opacity:1" fill="#205458" d="M 331.5,104.5 C 332.239,104.369 332.906,104.536 333.5,105C 332.167,106 332.167,107 333.5,108C 332.975,108.692 332.308,109.192 331.5,109.5C 330.334,107.833 330.334,106.166 331.5,104.5 Z"/></g>
<g><path style="opacity:1" fill="#12b5a1" d="M 346.5,94.5 C 347.473,96.9479 347.806,99.6146 347.5,102.5C 346.778,102.082 346.278,101.416 346,100.5C 344.354,101.779 343.187,103.445 342.5,105.5C 341.28,106.711 340.113,106.711 339,105.5C 337.667,106.167 336.667,107.167 336,108.5C 336.152,105.553 336.319,102.553 336.5,99.5C 339.346,99.8087 340.846,101.475 341,104.5C 341.182,101.774 341.682,99.1071 342.5,96.5C 344.87,99.0615 346.203,98.3949 346.5,94.5 Z"/></g>
<g><path style="opacity:1" fill="#11cbb0" d="M 350.5,100.5 C 349.527,98.0521 349.194,95.3854 349.5,92.5C 354.245,89.9837 354.578,90.6504 350.5,94.5C 351.355,95.293 352.189,94.9597 353,93.5C 353.309,95.3914 352.475,96.7248 350.5,97.5C 351.603,97.9976 352.603,98.3309 353.5,98.5C 352.643,99.4252 351.643,100.092 350.5,100.5 Z"/></g>
<g><path style="opacity:1" fill="#1f716d" d="M 349.5,92.5 C 349.194,95.3854 349.527,98.0521 350.5,100.5C 350.027,101.906 349.027,102.573 347.5,102.5C 347.806,99.6146 347.473,96.9479 346.5,94.5C 347.29,93.5987 348.29,92.9321 349.5,92.5 Z"/></g>
<g><path style="opacity:1" fill="#12b19f" d="M 325.5,119.5 C 323.664,121.588 321.331,122.921 318.5,123.5C 320.336,121.412 322.669,120.079 325.5,119.5 Z"/></g>
<g><path style="opacity:1" fill="#13ae9b" d="M 346.5,116.5 C 329.828,127.507 312.495,137.507 294.5,146.5C 311.499,135.998 328.832,125.998 346.5,116.5 Z"/></g>
<g><path style="opacity:1" fill="#188a7f" d="M 367.5,118.5 C 368.931,119.082 370.264,119.915 371.5,121C 369.699,121.317 369.366,121.984 370.5,123C 366.891,123.226 365.891,121.726 367.5,118.5 Z"/></g>
<g><path style="opacity:1" fill="#13b39e" d="M 271.5,120.5 C 272.683,121.504 274.016,122.338 275.5,123C 274.069,123.465 272.903,124.299 272,125.5C 271.167,124.667 270.333,123.833 269.5,123C 270.756,122.583 271.423,121.75 271.5,120.5 Z"/></g>
<g><path style="opacity:1" fill="#169d8f" d="M 299.5,125.5 C 295.581,126.043 295.581,125.21 299.5,123C 299.272,122.601 298.938,122.435 298.5,122.5C 300.187,120.834 302.187,119.5 304.5,118.5C 304.833,118.833 305.167,119.167 305.5,119.5C 304.926,122.177 304.259,124.843 303.5,127.5C 302.692,125.577 302.192,123.577 302,121.5C 301.066,122.858 300.232,124.192 299.5,125.5 Z"/></g>
<g><path style="opacity:1" fill="#12aa99" d="M 288.5,122.5 C 283.653,126.183 278.487,129.516 273,132.5C 271.603,137.708 271.103,143.041 271.5,148.5C 278.61,145.445 285.61,142.112 292.5,138.5C 289.124,141.194 285.457,143.527 281.5,145.5C 279.692,146.907 277.692,148.074 275.5,149C 270.079,150.28 268.079,148.113 269.5,142.5C 269.089,138.537 269.922,134.87 272,131.5C 277.314,128.094 282.814,125.094 288.5,122.5 Z"/></g>
<g><path style="opacity:1" fill="#199183" d="M 261.5,126.5 C 264.824,127.11 265.324,128.777 263,131.5C 262.097,130.299 260.931,129.465 259.5,129C 260.756,128.583 261.423,127.75 261.5,126.5 Z"/></g>
<g><path style="opacity:1" fill="#0dcdb1" d="M 298.5,122.5 C 298.938,122.435 299.272,122.601 299.5,123C 295.581,125.21 295.581,126.043 299.5,125.5C 299.33,126.822 299.663,127.989 300.5,129C 299.451,129.492 298.451,129.326 297.5,128.5C 296.749,129.376 296.249,130.376 296,131.5C 295.333,128.833 295.333,126.167 296,123.5C 296.671,122.748 297.504,122.414 298.5,122.5 Z"/></g>
<g><path style="opacity:1" fill="#13ad9a" d="M 318.5,123.5 C 310.355,129.291 301.688,134.291 292.5,138.5C 300.645,132.709 309.312,127.709 318.5,123.5 Z"/></g>
<g><path style="opacity:1" fill="#15ad9b" d="M 291.5,125.5 C 292.117,125.611 292.617,125.944 293,126.5C 293.837,128.821 294.17,131.155 294,133.5C 293.282,132.549 292.449,132.383 291.5,133C 290.789,134.255 289.956,135.421 289,136.5C 289.053,134.064 288.887,131.731 288.5,129.5C 287.833,132.167 287.167,134.833 286.5,137.5C 285.964,135.031 284.964,132.864 283.5,131C 285.457,128.911 287.624,128.077 290,128.5C 290.513,127.473 291.013,126.473 291.5,125.5 Z"/></g>
<g><path style="opacity:1" fill="#12c0a8" d="M 280.5,131.5 C 284.43,132.437 284.43,133.437 280.5,134.5C 281.325,135.386 282.325,135.719 283.5,135.5C 283.579,139.429 281.912,141.096 278.5,140.5C 282.335,139.004 282.335,138.004 278.5,137.5C 278.253,135.142 278.919,133.142 280.5,131.5 Z"/></g>
<g><path style="opacity:1" fill="#284951" d="M 360.5,111.5 C 360.5,132.167 360.5,152.833 360.5,173.5C 360.573,175.027 359.906,176.027 358.5,176.5C 356.5,176.5 355.5,175.5 355.5,173.5C 356.301,171.958 356.634,170.292 356.5,168.5C 357.397,167.402 358.23,167.402 359,168.5C 359.99,164.556 359.49,160.889 357.5,157.5C 359.419,151.299 359.919,144.966 359,138.5C 356.281,139.444 353.448,139.777 350.5,139.5C 350.66,137.801 350.494,136.134 350,134.5C 348.729,137.383 347.229,140.05 345.5,142.5C 344.371,140.372 344.204,138.039 345,135.5C 346,135.5 347,135.5 348,135.5C 348.617,134.551 348.451,133.718 347.5,133C 348.167,132.667 348.833,132.333 349.5,132C 348.263,131.768 347.263,131.268 346.5,130.5C 348.017,130.489 349.184,129.823 350,128.5C 350.497,126.19 350.663,123.857 350.5,121.5C 347.728,121.595 345.728,122.929 344.5,125.5C 341.634,127.578 338.634,129.411 335.5,131C 334.809,132.067 334.309,133.234 334,134.5C 333.692,133.692 333.192,133.025 332.5,132.5C 330.709,133.924 328.875,135.258 327,136.5C 326.692,135.692 326.192,135.025 325.5,134.5C 322.704,143.554 324.537,145.221 331,139.5C 331.333,138.167 331.667,136.833 332,135.5C 332.05,137.744 332.883,139.411 334.5,140.5C 335.167,140.5 335.833,140.5 336.5,140.5C 331.992,143.253 327.659,146.253 323.5,149.5C 320.669,150.079 318.336,151.412 316.5,153.5C 314.046,154.227 311.713,155.227 309.5,156.5C 307.208,156.244 305.041,156.577 303,157.5C 302.722,156.584 302.222,155.918 301.5,155.5C 301.286,153.856 301.62,152.356 302.5,151C 301.833,150.333 301.167,150.333 300.5,151C 299.644,153.876 298.144,156.376 296,158.5C 295.333,156.833 295.333,155.167 296,153.5C 296.667,152.167 297.333,152.167 298,153.5C 298.749,152.365 298.583,151.365 297.5,150.5C 296.482,151.193 295.482,151.859 294.5,152.5C 292.545,152.201 291.211,151.201 290.5,149.5C 292.23,148.974 293.564,147.974 294.5,146.5C 312.495,137.507 329.828,127.507 346.5,116.5C 349.331,115.921 351.664,114.588 353.5,112.5C 355.366,111.986 357.2,111.32 359,110.5C 359.765,110.57 360.265,110.903 360.5,111.5 Z"/></g>
<g><path style="opacity:1" fill="#169c8e" d="M 350.5,139.5 C 349.021,140.759 347.354,141.759 345.5,142.5C 347.229,140.05 348.729,137.383 350,134.5C 350.494,136.134 350.66,137.801 350.5,139.5 Z"/></g>
<g><path style="opacity:1" fill="#14a998" d="M 346.5,130.5 C 345.842,129.602 345.176,128.602 344.5,127.5C 343.534,129.396 343.201,131.396 343.5,133.5C 341.516,133.383 339.85,134.05 338.5,135.5C 337.201,134.91 336.368,133.91 336,132.5C 335.178,135.117 334.678,137.784 334.5,140.5C 332.883,139.411 332.05,137.744 332,135.5C 331.667,136.833 331.333,138.167 331,139.5C 324.537,145.221 322.704,143.554 325.5,134.5C 326.192,135.025 326.692,135.692 327,136.5C 328.875,135.258 330.709,133.924 332.5,132.5C 333.192,133.025 333.692,133.692 334,134.5C 334.309,133.234 334.809,132.067 335.5,131C 338.634,129.411 341.634,127.578 344.5,125.5C 345.728,122.929 347.728,121.595 350.5,121.5C 350.663,123.857 350.497,126.19 350,128.5C 349.184,129.823 348.017,130.489 346.5,130.5 Z"/></g>
<g><path style="opacity:1" fill="#179a8d" d="M 354.5,131.5 C 356.847,133.03 357.014,135.03 355,137.5C 354.333,134.833 353.667,134.833 353,137.5C 350.93,134.875 351.43,132.875 354.5,131.5 Z"/></g>
<g><path style="opacity:1" fill="#10b5a0" d="M 353.5,117.5 C 356.113,118.095 356.113,118.929 353.5,120C 354.448,120.483 355.448,120.649 356.5,120.5C 356.769,122.429 356.269,124.095 355,125.5C 354.935,123.117 354.102,122.45 352.5,123.5C 351.23,121.243 351.564,119.243 353.5,117.5 Z"/></g>
<g><path style="opacity:1" fill="#2b454e" d="M 346.5,130.5 C 347.263,131.268 348.263,131.768 349.5,132C 348.833,132.333 348.167,132.667 347.5,133C 348.451,133.718 348.617,134.551 348,135.5C 347,135.5 346,135.5 345,135.5C 344.204,138.039 344.371,140.372 345.5,142.5C 347.354,141.759 349.021,140.759 350.5,139.5C 353.448,139.777 356.281,139.444 359,138.5C 359.919,144.966 359.419,151.299 357.5,157.5C 359.49,160.889 359.99,164.556 359,168.5C 358.23,167.402 357.397,167.402 356.5,168.5C 354.292,169.023 352.792,170.356 352,172.5C 350.893,171.288 350.393,171.621 350.5,173.5C 350.167,173.5 349.833,173.5 349.5,173.5C 346.815,172.372 344.148,171.038 341.5,169.5C 342.025,168.808 342.692,168.308 343.5,168C 342.748,167.329 342.414,166.496 342.5,165.5C 342.5,164.833 342.5,164.167 342.5,163.5C 341.508,163.328 340.842,163.662 340.5,164.5C 339.566,165.568 339.232,166.901 339.5,168.5C 337.833,168.5 336.167,168.5 334.5,168.5C 334.873,162.347 332.539,161.014 327.5,164.5C 323.963,163.46 320.63,162.127 317.5,160.5C 318.5,160.167 319.167,159.5 319.5,158.5C 322.331,157.921 324.664,156.588 326.5,154.5C 331.52,152.238 336.353,149.572 341,146.5C 343.942,140.803 342.442,138.803 336.5,140.5C 335.833,140.5 335.167,140.5 334.5,140.5C 334.678,137.784 335.178,135.117 336,132.5C 336.368,133.91 337.201,134.91 338.5,135.5C 339.85,134.05 341.516,133.383 343.5,133.5C 343.201,131.396 343.534,129.396 344.5,127.5C 345.176,128.602 345.842,129.602 346.5,130.5 Z"/></g>
<g><path style="opacity:1" fill="#132d32" d="M 134.5,138.5 C 135.978,138.238 137.311,138.571 138.5,139.5C 136.4,142.711 134.066,145.711 131.5,148.5C 130.521,145.375 130.187,142.042 130.5,138.5C 131.833,138.5 133.167,138.5 134.5,138.5 Z"/></g>
<g><path style="opacity:1" fill="#169186" d="M 265.5,141.5 C 265.389,142.117 265.056,142.617 264.5,143C 261.51,143.847 260.176,142.68 260.5,139.5C 263.163,137.83 264.83,138.497 265.5,141.5 Z"/></g>
<g><path style="opacity:1" fill="#16ae9a" d="M 321.5,136.5 C 322.649,136.791 323.316,137.624 323.5,139C 323.333,139.833 323.167,140.667 323,141.5C 321.354,142.779 320.187,144.445 319.5,146.5C 317.741,142.454 318.408,139.121 321.5,136.5 Z"/></g>
<g><path style="opacity:1" fill="#f8a7a6" d="M 198.5,142.5 C 198.5,146.167 198.5,149.833 198.5,153.5C 191.32,155.276 184.32,154.776 177.5,152C 171.319,151.828 165.319,151.328 159.5,150.5C 160.488,146.211 161.321,141.878 162,137.5C 173.602,144.042 185.602,145.042 198,140.5C 198.464,141.094 198.631,141.761 198.5,142.5 Z"/></g>
<g><path style="opacity:1" fill="#284a52" d="M 327.5,152.5 C 327.715,150.821 327.048,149.821 325.5,149.5C 330.185,146.4 335.019,143.4 340,140.5C 340.896,143.025 340.396,145.192 338.5,147C 334.78,148.86 331.114,150.693 327.5,152.5 Z"/></g>
<g><path style="opacity:1" fill="#10bea8" d="M 316.5,141.5 C 317.124,141.917 317.457,142.584 317.5,143.5C 316.768,146.197 315.934,148.864 315,151.5C 314.627,149.302 314.127,147.135 313.5,145C 315.026,144.959 316.026,143.792 316.5,141.5 Z"/></g>
<g><path style="opacity:1" fill="#183137" d="M 119.5,145.5 C 121.388,147.988 122.055,150.988 121.5,154.5C 119.167,154.5 116.833,154.5 114.5,154.5C 115.693,151.289 117.359,148.289 119.5,145.5 Z"/></g>
<g><path style="opacity:1" fill="#14a998" d="M 326.5,154.5 C 326.833,153.833 327.167,153.167 327.5,152.5C 331.114,150.693 334.78,148.86 338.5,147C 340.396,145.192 340.896,143.025 340,140.5C 335.019,143.4 330.185,146.4 325.5,149.5C 324.833,149.5 324.167,149.5 323.5,149.5C 327.659,146.253 331.992,143.253 336.5,140.5C 342.442,138.803 343.942,140.803 341,146.5C 336.353,149.572 331.52,152.238 326.5,154.5 Z"/></g>
<g><path style="opacity:1" fill="#2a3239" d="M 173.5,146.5 C 178.778,147.605 178.612,148.605 173,149.5C 172.53,148.423 172.697,147.423 173.5,146.5 Z"/></g>
<g><path style="opacity:1" fill="#07c4a9" d="M 143.5,149.5 C 144.167,149.5 144.833,149.5 145.5,149.5C 152.412,149.574 156.412,153.074 157.5,160C 156.929,162.544 156.262,165.044 155.5,167.5C 154.41,168.857 153.076,169.857 151.5,170.5C 149.5,170.5 147.5,170.5 145.5,170.5C 139.936,166.661 137.77,161.328 139,154.5C 140.059,152.341 141.559,150.674 143.5,149.5 Z"/></g>
<g><path style="opacity:1" fill="#31373b" d="M 193.5,148.5 C 196.68,148.176 197.847,149.51 197,152.5C 195.581,151.54 194.081,150.707 192.5,150C 193.056,149.617 193.389,149.117 193.5,148.5 Z"/></g>
<g><path style="opacity:1" fill="#11b29e" d="M 294.5,146.5 C 293.564,147.974 292.23,148.974 290.5,149.5C 288.117,151.358 285.45,152.692 282.5,153.5C 283.984,151.926 285.651,150.593 287.5,149.5C 289.713,148.227 292.046,147.227 294.5,146.5 Z"/></g>
<g><path style="opacity:1" fill="#10bea7" d="M 310.5,144.5 C 312.688,145.536 312.688,147.036 310.5,149C 312.654,150.184 312.32,151.35 309.5,152.5C 309.431,150.722 309.097,148.889 308.5,147C 309.381,146.292 310.047,145.458 310.5,144.5 Z"/></g>
<g><path style="opacity:1" fill="#11c2aa" d="M 305.5,147.5 C 306.693,147.97 307.36,148.97 307.5,150.5C 307.24,152.618 306.24,154.284 304.5,155.5C 304.08,153.647 303.747,151.813 303.5,150C 304.381,149.292 305.047,148.458 305.5,147.5 Z"/></g>
<g><path style="opacity:1" fill="#4c5258" d="M 198.5,142.5 C 199.479,145.625 199.813,148.958 199.5,152.5C 199.443,153.609 199.11,154.609 198.5,155.5C 195.813,155.336 193.146,155.503 190.5,156C 189.565,158.381 189.232,160.881 189.5,163.5C 188.35,161.397 187.017,159.397 185.5,157.5C 183.844,159.46 182.177,161.46 180.5,163.5C 171.544,167.344 167.544,164.344 168.5,154.5C 165.167,154.5 161.833,154.5 158.5,154.5C 157.167,152.833 155.833,151.167 154.5,149.5C 156.117,150.038 157.784,150.371 159.5,150.5C 165.319,151.328 171.319,151.828 177.5,152C 184.32,154.776 191.32,155.276 198.5,153.5C 198.5,149.833 198.5,146.167 198.5,142.5 Z"/></g>
<g><path style="opacity:1" fill="#11b39c" d="M 323.5,149.5 C 321.664,151.588 319.331,152.921 316.5,153.5C 318.336,151.412 320.669,150.079 323.5,149.5 Z"/></g>
<g><path style="opacity:1" fill="#0eb29e" d="M 301.5,155.5 C 299.404,156.222 297.404,157.889 295.5,160.5C 293.225,158.168 292.892,155.502 294.5,152.5C 295.482,151.859 296.482,151.193 297.5,150.5C 298.583,151.365 298.749,152.365 298,153.5C 297.333,152.167 296.667,152.167 296,153.5C 295.333,155.167 295.333,156.833 296,158.5C 298.144,156.376 299.644,153.876 300.5,151C 301.167,150.333 301.833,150.333 302.5,151C 301.62,152.356 301.286,153.856 301.5,155.5 Z"/></g>
<g><path style="opacity:1" fill="#1c9d87" d="M 145.5,149.5 C 145.5,148.833 145.833,148.5 146.5,148.5C 148.5,148.5 150.5,148.5 152.5,148.5C 152.842,149.338 153.508,149.672 154.5,149.5C 155.833,151.167 157.167,152.833 158.5,154.5C 160.352,159.583 159.352,163.916 155.5,167.5C 156.262,165.044 156.929,162.544 157.5,160C 156.412,153.074 152.412,149.574 145.5,149.5 Z"/></g>
<g><path style="opacity:1" fill="#fba7a6" d="M 158.5,154.5 C 161.833,154.5 165.167,154.5 168.5,154.5C 167.544,164.344 171.544,167.344 180.5,163.5C 182.177,161.46 183.844,159.46 185.5,157.5C 187.017,159.397 188.35,161.397 189.5,163.5C 189.414,164.496 189.748,165.329 190.5,166C 192.833,166.333 195.167,166.667 197.5,167C 196.748,167.671 196.414,168.504 196.5,169.5C 196.5,170.5 196.5,171.5 196.5,172.5C 194.924,175.352 193.424,178.352 192,181.5C 190.629,183.041 189.129,184.375 187.5,185.5C 186.391,185.557 185.391,185.89 184.5,186.5C 180.738,186.348 177.072,185.681 173.5,184.5C 172.817,184.863 172.15,185.196 171.5,185.5C 171.631,184.624 171.298,183.957 170.5,183.5C 163.733,182.062 159.566,178.062 158,171.5C 157.222,180.903 161.722,185.903 171.5,186.5C 170.26,189.445 170.26,192.445 171.5,195.5C 170.318,197.923 168.318,198.923 165.5,198.5C 158.312,197.466 152.478,194.133 148,188.5C 147.506,186.866 147.34,185.199 147.5,183.5C 148.537,182.07 149.204,180.403 149.5,178.5C 149.858,175.733 150.525,173.067 151.5,170.5C 153.076,169.857 154.41,168.857 155.5,167.5C 159.352,163.916 160.352,159.583 158.5,154.5 Z"/></g>
<g><path style="opacity:1" fill="#284d54" d="M 145.5,154.5 C 149.641,154.304 151.975,156.304 152.5,160.5C 151.233,164.395 148.733,165.395 145,163.5C 142.88,160.303 143.047,157.303 145.5,154.5 Z"/></g>
<g><path style="opacity:1" fill="#1c6564" d="M 323.5,149.5 C 324.167,149.5 324.833,149.5 325.5,149.5C 327.048,149.821 327.715,150.821 327.5,152.5C 327.167,153.167 326.833,153.833 326.5,154.5C 324.5,155.167 322.5,155.833 320.5,156.5C 322,154.821 323.833,153.488 326,152.5C 326.688,151.668 326.521,151.002 325.5,150.5C 320.605,153.446 315.605,156.113 310.5,158.5C 312.5,156.833 314.5,155.167 316.5,153.5C 319.331,152.921 321.664,151.588 323.5,149.5 Z"/></g>
<g><path style="opacity:1" fill="#eca3a3" d="M 170.5,153.5 C 174.383,153.109 178.05,153.776 181.5,155.5C 181.98,162.626 178.646,164.959 171.5,162.5C 169.312,159.705 168.979,156.705 170.5,153.5 Z"/></g>
<g><path style="opacity:1" fill="#b38c8e" d="M 173.5,154.5 C 174.93,154.421 176.264,154.754 177.5,155.5C 178.769,157.695 178.769,159.861 177.5,162C 174.085,162.266 172.085,160.6 171.5,157C 172.381,156.292 173.047,155.458 173.5,154.5 Z"/></g>
<g><path style="opacity:1" fill="#15b19e" d="M 326.5,154.5 C 324.664,156.588 322.331,157.921 319.5,158.5C 319.833,157.833 320.167,157.167 320.5,156.5C 322.5,155.833 324.5,155.167 326.5,154.5 Z"/></g>
<g><path style="opacity:1" fill="#10978a" d="M 316.5,153.5 C 314.5,155.167 312.5,156.833 310.5,158.5C 308.664,160.588 306.331,161.921 303.5,162.5C 301.5,163.167 299.5,163.833 297.5,164.5C 301.5,161.833 305.5,159.167 309.5,156.5C 311.713,155.227 314.046,154.227 316.5,153.5 Z"/></g>
<g><path style="opacity:1" fill="#1c6061" d="M 320.5,156.5 C 320.167,157.167 319.833,157.833 319.5,158.5C 317.5,159.167 315.5,159.833 313.5,160.5C 315.336,158.412 317.669,157.079 320.5,156.5 Z"/></g>
<g><path style="opacity:1" fill="#ae898c" d="M 198.5,160.5 C 198.768,162.099 198.434,163.432 197.5,164.5C 197.649,163.448 197.483,162.448 197,161.5C 195.33,163.698 193.33,164.032 191,162.5C 189.417,157.9 190.917,156.066 195.5,157C 196.636,158.145 197.636,159.312 198.5,160.5 Z"/></g>
<g><path style="opacity:1" fill="#16988b" d="M 354.5,155.5 C 356.344,156.204 356.844,157.537 356,159.5C 353.64,160.059 351.307,161.392 349,163.5C 348.333,161.5 348.333,159.5 349,157.5C 350,156.167 351,156.167 352,157.5C 352.995,156.934 353.828,156.267 354.5,155.5 Z"/></g>
<g><path style="opacity:1" fill="#0fb5a0" d="M 319.5,158.5 C 319.167,159.5 318.5,160.167 317.5,160.5C 315.95,161.441 314.284,162.107 312.5,162.5C 312.833,161.833 313.167,161.167 313.5,160.5C 315.5,159.833 317.5,159.167 319.5,158.5 Z"/></g>
<g><path style="opacity:1" fill="#17998b" d="M 342.5,163.5 C 345.967,156.662 347.467,156.996 347,164.5C 346,165.167 345,165.833 344,166.5C 343.768,165.263 343.268,164.263 342.5,163.5 Z"/></g>
<g><path style="opacity:1" fill="#eea6a5" d="M 198.5,155.5 C 198.5,157.167 198.5,158.833 198.5,160.5C 197.636,159.312 196.636,158.145 195.5,157C 190.917,156.066 189.417,157.9 191,162.5C 193.33,164.032 195.33,163.698 197,161.5C 197.483,162.448 197.649,163.448 197.5,164.5C 194.589,165.983 191.922,165.65 189.5,163.5C 189.232,160.881 189.565,158.381 190.5,156C 193.146,155.503 195.813,155.336 198.5,155.5 Z"/></g>
<g><path style="opacity:1" fill="#1d8b7f" d="M 366.5,161.5 C 369.91,161.384 371.244,163.05 370.5,166.5C 366.065,167.078 364.732,165.411 366.5,161.5 Z"/></g>
<g><path style="opacity:1" fill="#025f50" d="M 144.5,121.5 C 145.482,124.962 145.815,128.629 145.5,132.5C 143.655,137.945 142.988,143.612 143.5,149.5C 141.559,150.674 140.059,152.341 139,154.5C 137.77,161.328 139.936,166.661 145.5,170.5C 145.629,172.216 145.962,173.883 146.5,175.5C 145.603,174.402 144.77,174.402 144,175.5C 141.865,178.767 140.031,182.101 138.5,185.5C 135.933,185.721 133.599,186.388 131.5,187.5C 126.448,188.257 121.781,189.924 117.5,192.5C 115.735,191.539 113.735,191.205 111.5,191.5C 111.953,190.542 112.619,189.708 113.5,189C 119.277,186.112 125.277,183.779 131.5,182C 132.428,181.612 133.095,180.945 133.5,180C 134.55,176.545 134.717,173.045 134,169.5C 133.311,168.643 132.478,167.977 131.5,167.5C 125.33,171.419 118.997,175.086 112.5,178.5C 112.167,178.167 111.833,177.833 111.5,177.5C 118.36,172.812 125.36,168.312 132.5,164C 131.529,158.928 131.195,153.762 131.5,148.5C 134.066,145.711 136.4,142.711 138.5,139.5C 137.311,138.571 135.978,138.238 134.5,138.5C 135.512,132.816 138.679,128.816 144,126.5C 144.494,124.866 144.66,123.199 144.5,121.5 Z"/></g>
<g><path style="opacity:1" fill="#17a996" d="M 342.5,163.5 C 342.5,164.167 342.5,164.833 342.5,165.5C 341.075,167.031 340.409,166.698 340.5,164.5C 340.842,163.662 341.508,163.328 342.5,163.5 Z"/></g>
<g><path style="opacity:1" fill="#0cceb3" d="M 334.5,168.5 C 333.399,169.848 332.399,171.348 331.5,173C 327.933,175.538 325.933,174.705 325.5,170.5C 325.611,168.286 326.278,166.286 327.5,164.5C 332.539,161.014 334.873,162.347 334.5,168.5 Z"/></g>
<g><path style="opacity:1" fill="#028371" d="M 94.5,165.5 C 96.674,165.75 98.3406,166.75 99.5,168.5C 99.5,168.833 99.5,169.167 99.5,169.5C 96.5357,175.117 93.2024,180.45 89.5,185.5C 89.1667,185.5 88.8333,185.5 88.5,185.5C 87.075,184.078 86.075,182.411 85.5,180.5C 88.7516,175.666 91.7516,170.666 94.5,165.5 Z"/></g>
<g><path style="opacity:1" fill="#0ba194" d="M 282.5,153.5 C 278.9,155.92 275.4,158.586 272,161.5C 271.5,183.164 271.333,204.831 271.5,226.5C 273.921,226.122 276.254,225.455 278.5,224.5C 276.225,227.389 273.392,228.056 270,226.5C 269.333,205.167 269.333,183.833 270,162.5C 273.178,158.158 277.345,155.158 282.5,153.5 Z"/></g>
<g><path style="opacity:1" fill="#0acfb3" d="M 320.5,156.5 C 317.669,157.079 315.336,158.412 313.5,160.5C 310.669,161.079 308.336,162.412 306.5,164.5C 302.992,165.504 299.826,167.171 297,169.5C 296.333,168.833 296.333,168.167 297,167.5C 299.326,165.934 301.492,164.268 303.5,162.5C 306.331,161.921 308.664,160.588 310.5,158.5C 315.605,156.113 320.605,153.446 325.5,150.5C 326.521,151.002 326.688,151.668 326,152.5C 323.833,153.488 322,154.821 320.5,156.5 Z"/></g>
<g><path style="opacity:1" fill="#1d3037" d="M 145.5,170.5 C 147.5,170.5 149.5,170.5 151.5,170.5C 150.525,173.067 149.858,175.733 149.5,178.5C 147.856,178.19 146.856,177.19 146.5,175.5C 145.962,173.883 145.629,172.216 145.5,170.5 Z"/></g>
<g><path style="opacity:1" fill="#193239" d="M 196.5,169.5 C 201.582,171.202 203.582,174.535 202.5,179.5C 201.833,179.167 201.167,178.833 200.5,178.5C 200.378,175.708 199.044,173.708 196.5,172.5C 196.5,171.5 196.5,170.5 196.5,169.5 Z"/></g>
<g><path style="opacity:1" fill="#14998d" d="M 356.5,168.5 C 356.634,170.292 356.301,171.958 355.5,173.5C 354.849,174.091 354.182,174.757 353.5,175.5C 351.898,174.45 351.065,175.117 351,177.5C 350.51,176.207 350.343,174.873 350.5,173.5C 350.393,171.621 350.893,171.288 352,172.5C 352.792,170.356 354.292,169.023 356.5,168.5 Z"/></g>
<g><path style="opacity:1" fill="#179387" d="M 370.5,171.5 C 373.465,172.582 373.965,174.249 372,176.5C 371.25,175.874 370.416,175.374 369.5,175C 370.337,173.989 370.67,172.822 370.5,171.5 Z"/></g>
<g><path style="opacity:1" fill="#ca6a6b" d="M 173.5,170.5 C 176.179,171.226 178.846,172.059 181.5,173C 182.833,175.333 182.167,176.333 179.5,176C 177.525,173.908 175.525,172.075 173.5,170.5 Z"/></g>
<g><path style="opacity:1" fill="#019a84" d="M 99.5,169.5 C 100.315,170.429 101.148,171.429 102,172.5C 103.708,179.081 104.875,185.748 105.5,192.5C 106.5,192.5 107.5,192.5 108.5,192.5C 105.332,197.834 102.999,203.501 101.5,209.5C 101.167,209.5 100.833,209.5 100.5,209.5C 99.2921,210.234 97.9587,210.567 96.5,210.5C 94.9387,201.918 92.6053,193.584 89.5,185.5C 93.2024,180.45 96.5357,175.117 99.5,169.5 Z"/></g>
<g><path style="opacity:1" fill="#138370" d="M 146.5,175.5 C 146.856,177.19 147.856,178.19 149.5,178.5C 149.204,180.403 148.537,182.07 147.5,183.5C 144.37,183.7 141.37,184.366 138.5,185.5C 140.031,182.101 141.865,178.767 144,175.5C 144.77,174.402 145.603,174.402 146.5,175.5 Z"/></g>
<g><path style="opacity:1" fill="#0eb7a1" d="M 360.5,173.5 C 361.167,173.5 361.5,173.833 361.5,174.5C 361.5,175.167 361.5,175.833 361.5,176.5C 360.078,177.925 358.411,178.925 356.5,179.5C 357.167,178.5 357.833,177.5 358.5,176.5C 359.906,176.027 360.573,175.027 360.5,173.5 Z"/></g>
<g><path style="opacity:1" fill="#fd9292" d="M 171.5,185.5 C 171.5,185.833 171.5,186.167 171.5,186.5C 161.722,185.903 157.222,180.903 158,171.5C 159.566,178.062 163.733,182.062 170.5,183.5C 171.298,183.957 171.631,184.624 171.5,185.5 Z"/></g>
<g><path style="opacity:1" fill="#06c1a8" d="M 200.5,178.5 C 201.167,178.833 201.833,179.167 202.5,179.5C 201.967,183.194 199.967,185.361 196.5,186C 194.916,182.058 196.25,179.558 200.5,178.5 Z"/></g>
<g><path style="opacity:1" fill="#0db49f" d="M 356.5,179.5 C 350.666,183.921 344.332,187.588 337.5,190.5C 343.334,186.079 349.668,182.412 356.5,179.5 Z"/></g>
<g><path style="opacity:1" fill="#025d4e" d="M 85.5,180.5 C 86.075,182.411 87.075,184.078 88.5,185.5C 85.2906,188.891 83.1239,192.891 82,197.5C 81.5005,203.825 81.3338,210.158 81.5,216.5C 79.8639,215.251 78.6972,213.584 78,211.5C 77.3333,204.833 77.3333,198.167 78,191.5C 79.5818,187.106 82.0818,183.439 85.5,180.5 Z"/></g>
<g><path style="opacity:1" fill="#0eb09c" d="M 362.5,179.5 C 365.609,180.813 365.942,182.479 363.5,184.5C 362.328,184.081 361.328,183.415 360.5,182.5C 361.612,181.735 362.279,180.735 362.5,179.5 Z"/></g>
<g><path style="opacity:1" fill="#eeeeee" d="M 147.5,183.5 C 147.34,185.199 147.506,186.866 148,188.5C 152.478,194.133 158.312,197.466 165.5,198.5C 168.318,198.923 170.318,197.923 171.5,195.5C 170.26,192.445 170.26,189.445 171.5,186.5C 171.5,186.167 171.5,185.833 171.5,185.5C 172.15,185.196 172.817,184.863 173.5,184.5C 177.072,185.681 180.738,186.348 184.5,186.5C 189.048,190.803 191.048,196.136 190.5,202.5C 188.365,216.11 186.699,229.777 185.5,243.5C 185.5,252.5 185.5,261.5 185.5,270.5C 185.66,272.199 185.494,273.866 185,275.5C 173.966,286.904 160.466,292.571 144.5,292.5C 143.527,292.013 142.527,291.513 141.5,291C 136.568,285.945 131.735,280.779 127,275.5C 127.582,268.509 128.415,261.509 129.5,254.5C 133.051,239.24 136.051,223.74 138.5,208C 138.544,200.275 136.21,193.442 131.5,187.5C 133.599,186.388 135.933,185.721 138.5,185.5C 141.37,184.366 144.37,183.7 147.5,183.5 Z"/></g>
<g><path style="opacity:1" fill="#375962" d="M 381.5,185.5 C 387.446,186.792 389.779,190.459 388.5,196.5C 386.479,220.48 384.812,244.48 383.5,268.5C 383.167,268.5 382.833,268.5 382.5,268.5C 383.626,242.823 384.959,217.156 386.5,191.5C 346.048,213.597 306.048,236.597 266.5,260.5C 264.167,259.167 261.833,257.833 259.5,256.5C 262.586,253.777 265.92,251.277 269.5,249C 306.808,227.52 344.141,206.354 381.5,185.5 Z"/></g>
<g><path style="opacity:1" fill="#026e5d" d="M 88.5,185.5 C 88.8333,185.5 89.1667,185.5 89.5,185.5C 92.6053,193.584 94.9387,201.918 96.5,210.5C 97.9587,210.567 99.2921,210.234 100.5,209.5C 96.1896,230.263 93.5229,251.263 92.5,272.5C 92.6221,277.526 92.9555,282.526 93.5,287.5C 88.8983,289.512 88.5649,292.012 92.5,295C 109.006,305.756 126.006,315.756 143.5,325C 144.252,325.671 144.586,326.504 144.5,327.5C 143.833,327.833 143.167,328.167 142.5,328.5C 124.647,317.985 106.814,307.318 89,296.5C 88.1751,298.701 88.6751,300.534 90.5,302C 93.54,304.22 96.8733,305.72 100.5,306.5C 100.829,312.206 100.495,317.872 99.5,323.5C 96.4234,321.295 93.0901,319.628 89.5,318.5C 88.9433,314.112 90.6099,310.945 94.5,309C 93.2625,308.768 92.2625,308.268 91.5,307.5C 86.2902,300.846 83.9568,293.18 84.5,284.5C 86.3633,268.018 88.03,251.518 89.5,235C 89.3333,232.5 89.1667,230 89,227.5C 88.6232,226.058 87.7899,225.058 86.5,224.5C 85.3449,221.525 83.6782,218.858 81.5,216.5C 81.3338,210.158 81.5005,203.825 82,197.5C 83.1239,192.891 85.2906,188.891 88.5,185.5 Z"/></g>
<g><path style="opacity:1" fill="#2c454e" d="M 131.5,187.5 C 136.21,193.442 138.544,200.275 138.5,208C 136.051,223.74 133.051,239.24 129.5,254.5C 120.263,257.508 111.263,256.841 102.5,252.5C 102.792,235.63 105.292,218.963 110,202.5C 111.305,198.203 113.805,194.869 117.5,192.5C 121.781,189.924 126.448,188.257 131.5,187.5 Z"/></g>
<g><path style="opacity:1" fill="#0eb5a0" d="M 337.5,190.5 C 335.664,192.588 333.331,193.921 330.5,194.5C 332.336,192.412 334.669,191.079 337.5,190.5 Z"/></g>
<g><path style="opacity:1" fill="#2e464f" d="M 187.5,185.5 C 189.764,187.764 192.098,190.098 194.5,192.5C 195.333,194.167 196.167,195.833 197,197.5C 199.7,211.02 201.2,224.686 201.5,238.5C 197.855,239.987 194.188,241.487 190.5,243C 188.866,243.494 187.199,243.66 185.5,243.5C 186.699,229.777 188.365,216.11 190.5,202.5C 191.048,196.136 189.048,190.803 184.5,186.5C 185.391,185.89 186.391,185.557 187.5,185.5 Z"/></g>
<g><path style="opacity:1" fill="#2b444e" d="M 382.5,268.5 C 381.752,274.452 381.252,280.452 381,286.5C 380.333,287.833 379.667,289.167 379,290.5C 369.08,296.878 358.914,302.878 348.5,308.5C 348.167,309.167 347.833,309.833 347.5,310.5C 348.84,314.851 350.173,319.184 351.5,323.5C 353.277,326.374 353.611,329.374 352.5,332.5C 342.94,338.112 333.273,343.445 323.5,348.5C 322.28,334.851 321.28,321.184 320.5,307.5C 327.604,303.442 334.604,299.109 341.5,294.5C 340.672,293.585 339.672,292.919 338.5,292.5C 331.004,296.414 323.671,300.58 316.5,305C 317.056,305.383 317.389,305.883 317.5,306.5C 316.43,313.008 316.43,319.675 317.5,326.5C 298.045,337.973 278.378,348.973 258.5,359.5C 260.168,326.49 262.835,293.49 266.5,260.5C 306.048,236.597 346.048,213.597 386.5,191.5C 384.959,217.156 383.626,242.823 382.5,268.5 Z"/></g>
<g><path style="opacity:1" fill="#0db8a1" d="M 330.5,194.5 C 329.341,196.25 327.674,197.25 325.5,197.5C 326.659,195.75 328.326,194.75 330.5,194.5 Z"/></g>
<g><path style="opacity:1" fill="#119386" d="M 263.5,196.5 C 264.901,196.971 266.234,197.638 267.5,198.5C 266.478,199.354 265.645,200.354 265,201.5C 264.5,200.333 263.667,199.5 262.5,199C 263.252,198.329 263.586,197.496 263.5,196.5 Z"/></g>
<g><path style="opacity:1" fill="#0eb5a0" d="M 325.5,197.5 C 323.664,199.588 321.331,200.921 318.5,201.5C 320.336,199.412 322.669,198.079 325.5,197.5 Z"/></g>
<g><path style="opacity:1" fill="#16585d" d="M 290.5,149.5 C 291.211,151.201 292.545,152.201 294.5,152.5C 292.892,155.502 293.225,158.168 295.5,160.5C 297.404,157.889 299.404,156.222 301.5,155.5C 302.222,155.918 302.722,156.584 303,157.5C 305.041,156.577 307.208,156.244 309.5,156.5C 305.5,159.167 301.5,161.833 297.5,164.5C 293.67,165.689 292.67,168.022 294.5,171.5C 296.915,172.648 298.915,171.982 300.5,169.5C 305.024,167.957 309.024,165.623 312.5,162.5C 314.284,162.107 315.95,161.441 317.5,160.5C 320.63,162.127 323.963,163.46 327.5,164.5C 326.278,166.286 325.611,168.286 325.5,170.5C 325.933,174.705 327.933,175.538 331.5,173C 332.399,171.348 333.399,169.848 334.5,168.5C 336.167,168.5 337.833,168.5 339.5,168.5C 339.232,166.901 339.566,165.568 340.5,164.5C 340.409,166.698 341.075,167.031 342.5,165.5C 342.414,166.496 342.748,167.329 343.5,168C 342.692,168.308 342.025,168.808 341.5,169.5C 344.148,171.038 346.815,172.372 349.5,173.5C 349.833,173.5 350.167,173.5 350.5,173.5C 350.343,174.873 350.51,176.207 351,177.5C 351.065,175.117 351.898,174.45 353.5,175.5C 354.182,174.757 354.849,174.091 355.5,173.5C 355.5,175.5 356.5,176.5 358.5,176.5C 357.833,177.5 357.167,178.5 356.5,179.5C 349.668,182.412 343.334,186.079 337.5,190.5C 334.669,191.079 332.336,192.412 330.5,194.5C 328.326,194.75 326.659,195.75 325.5,197.5C 322.669,198.079 320.336,199.412 318.5,201.5C 315.669,202.079 313.336,203.412 311.5,205.5C 304.668,208.412 298.334,212.079 292.5,216.5C 289.669,217.079 287.336,218.412 285.5,220.5C 282.669,221.079 280.336,222.412 278.5,224.5C 276.254,225.455 273.921,226.122 271.5,226.5C 271.333,204.831 271.5,183.164 272,161.5C 275.4,158.586 278.9,155.92 282.5,153.5C 285.45,152.692 288.117,151.358 290.5,149.5 Z"/></g>
<g><path style="opacity:1" fill="#1dd4b8" d="M 292.5,198.5 C 294.167,198.5 295.833,198.5 297.5,198.5C 298.698,204.444 296.531,208.444 291,210.5C 289.413,209.663 288.58,208.33 288.5,206.5C 289.317,203.533 290.65,200.866 292.5,198.5 Z"/></g>
<g><path style="opacity:1" fill="#0ecbb1" d="M 281.5,190.5 C 282.822,190.33 283.989,190.663 285,191.5C 285.831,195.673 284.665,199.173 281.5,202C 276.917,202.934 275.417,201.1 277,196.5C 277.804,193.854 279.304,191.854 281.5,190.5 Z"/></g>
<g><path style="opacity:1" fill="#206464" d="M 280.5,192.5 C 282.441,194.011 282.941,196.011 282,198.5C 279.178,197.107 278.678,195.107 280.5,192.5 Z"/></g>
<g><path style="opacity:1" fill="#0ec6ad" d="M 305.5,191.5 C 306.833,191.5 308.167,191.5 309.5,191.5C 310.661,197.178 308.661,201.178 303.5,203.5C 301.728,202.73 300.728,201.397 300.5,199.5C 301.4,196.284 303.067,193.618 305.5,191.5 Z"/></g>
<g><path style="opacity:1" fill="#294750" d="M 306.5,193.5 C 307.794,196.019 307.294,198.352 305,200.5C 304.056,199.737 303.556,198.737 303.5,197.5C 304.286,195.959 305.286,194.626 306.5,193.5 Z"/></g>
<g><path style="opacity:1" fill="#0bceb3" d="M 292.5,185.5 C 293.314,183.727 294.648,183.227 296.5,184C 298.525,189.449 296.858,193.283 291.5,195.5C 289.261,195.426 288.261,194.259 288.5,192C 288.707,189.076 290.04,186.91 292.5,185.5 Z"/></g>
<g><path style="opacity:1" fill="#205c5f" d="M 292.5,185.5 C 293.376,185.369 294.043,185.702 294.5,186.5C 294.797,188.885 294.297,191.218 293,193.5C 290.904,192.285 291.071,191.451 293.5,191C 292.572,190.612 291.905,189.945 291.5,189C 291.989,187.862 292.322,186.695 292.5,185.5 Z"/></g>
<g><path style="opacity:1" fill="#0acdb2" d="M 317.5,184.5 C 322.737,184.99 323.903,187.657 321,192.5C 314.828,198.543 312.495,197.21 314,188.5C 315.376,187.295 316.542,185.962 317.5,184.5 Z"/></g>
<g><path style="opacity:1" fill="#275257" d="M 318.5,186.5 C 319.497,186.47 320.164,186.97 320.5,188C 318.494,194.945 316.827,195.112 315.5,188.5C 317.179,188.715 318.179,188.048 318.5,186.5 Z"/></g>
<g><path style="opacity:1" fill="#0ccfb2" d="M 329.5,177.5 C 331.167,177.5 332.833,177.5 334.5,177.5C 335.396,184.589 332.396,188.255 325.5,188.5C 324.887,184.071 326.22,180.405 329.5,177.5 Z"/></g>
<g><path style="opacity:1" fill="#274e55" d="M 330.5,179.5 C 331.497,179.47 332.164,179.97 332.5,181C 330.494,187.945 328.827,188.112 327.5,181.5C 329.179,181.715 330.179,181.048 330.5,179.5 Z"/></g>
<g><path style="opacity:1" fill="#0bccb1" d="M 304.5,178.5 C 305.635,176.787 307.302,176.12 309.5,176.5C 310.3,181.126 308.966,184.96 305.5,188C 302.433,189.164 300.767,188.164 300.5,185C 300.707,182.076 302.04,179.91 304.5,178.5 Z"/></g>
<g><path style="opacity:1" fill="#1e6969" d="M 304.5,178.5 C 306.549,178.706 306.883,179.539 305.5,181C 308.012,182.873 307.846,184.707 305,186.5C 302.904,185.285 303.071,184.451 305.5,184C 304.572,183.612 303.905,182.945 303.5,182C 303.989,180.862 304.322,179.695 304.5,178.5 Z"/></g>
<g><path style="opacity:1" fill="#10968a" d="M 349.5,173.5 C 349.618,178.8 346.951,181.466 341.5,181.5C 342.371,177.129 345.038,174.462 349.5,173.5 Z"/></g>
<g><path style="opacity:1" fill="#10b6a1" d="M 300.5,169.5 C 298.915,171.982 296.915,172.648 294.5,171.5C 296.5,170.833 298.5,170.167 300.5,169.5 Z"/></g>
<g><path style="opacity:1" fill="#0bceb3" d="M 318.5,179.5 C 317.686,181.273 316.352,181.773 314.5,181C 312.475,175.551 314.142,171.717 319.5,169.5C 321.739,169.574 322.739,170.741 322.5,173C 322.293,175.924 320.96,178.09 318.5,179.5 Z"/></g>
<g><path style="opacity:1" fill="#1e6a6a" d="M 318.5,179.5 C 317.244,179.539 316.244,179.039 315.5,178C 316.086,175.72 316.92,173.553 318,171.5C 320.096,172.715 319.929,173.549 317.5,174C 318.428,174.388 319.095,175.055 319.5,176C 319.011,177.138 318.678,178.305 318.5,179.5 Z"/></g>
<g><path style="opacity:1" fill="#1d6362" d="M 329.5,164.5 C 331.986,165.462 331.986,166.295 329.5,167C 331.917,168.673 331.917,170.506 329.5,172.5C 328.271,169.801 328.271,167.135 329.5,164.5 Z"/></g>
<g><path style="opacity:1" fill="#0d6e6d" d="M 303.5,162.5 C 301.492,164.268 299.326,165.934 297,167.5C 296.333,168.167 296.333,168.833 297,169.5C 299.826,167.171 302.992,165.504 306.5,164.5C 304.5,166.167 302.5,167.833 300.5,169.5C 298.5,170.167 296.5,170.833 294.5,171.5C 294.15,168.547 295.15,166.213 297.5,164.5C 299.5,163.833 301.5,163.167 303.5,162.5 Z"/></g>
<g><path style="opacity:1" fill="#0db5a0" d="M 312.5,162.5 C 309.024,165.623 305.024,167.957 300.5,169.5C 302.5,167.833 304.5,166.167 306.5,164.5C 308.5,163.833 310.5,163.167 312.5,162.5 Z"/></g>
<g><path style="opacity:1" fill="#0dbba6" d="M 297.5,164.5 C 295.15,166.213 294.15,168.547 294.5,171.5C 292.67,168.022 293.67,165.689 297.5,164.5 Z"/></g>
<g><path style="opacity:1" fill="#0acfb4" d="M 284.5,157.5 C 287.808,156.974 289.974,158.307 291,161.5C 291.886,168.634 289.719,174.634 284.5,179.5C 281.386,181.062 278.553,180.729 276,178.5C 274.437,169.637 277.271,162.637 284.5,157.5 Z"/></g>
<g><path style="opacity:1" fill="#294851" d="M 283.5,169.5 C 287.071,169.408 288.238,171.074 287,174.5C 285.106,177.844 282.273,179.178 278.5,178.5C 278.343,177.127 278.51,175.793 279,174.5C 280.707,172.963 282.207,171.296 283.5,169.5 Z"/></g>
<g><path style="opacity:1" fill="#284950" d="M 283.5,169.5 C 282.5,169.5 281.5,169.5 280.5,169.5C 279.66,165.461 280.993,162.461 284.5,160.5C 285.881,161 286.547,162 286.5,163.5C 286.016,165.801 285.016,167.801 283.5,169.5 Z"/></g>
<g><path style="opacity:1" fill="#0f6a6a" d="M 313.5,160.5 C 313.167,161.167 312.833,161.833 312.5,162.5C 310.5,163.167 308.5,163.833 306.5,164.5C 308.336,162.412 310.669,161.079 313.5,160.5 Z"/></g>
<g><path style="opacity:1" fill="#daedec" d="M 294.5,200.5 C 295.794,203.019 295.294,205.352 293,207.5C 291.842,207.002 291.009,206.169 290.5,205C 291.604,203.285 292.938,201.785 294.5,200.5 Z"/></g>
<g><path style="opacity:1" fill="#0fb6a1" d="M 318.5,201.5 C 316.664,203.588 314.331,204.921 311.5,205.5C 313.336,203.412 315.669,202.079 318.5,201.5 Z"/></g>
<g><path style="opacity:1" fill="#0eb49f" d="M 311.5,205.5 C 305.666,209.921 299.332,213.588 292.5,216.5C 298.334,212.079 304.668,208.412 311.5,205.5 Z"/></g>
<g><path style="opacity:1" fill="#109488" d="M 256.5,204.5 C 261.197,205.874 261.531,207.874 257.5,210.5C 255.261,208.867 254.928,206.867 256.5,204.5 Z"/></g>
<g><path style="opacity:1" fill="#1bd3b7" d="M 280.5,205.5 C 283.59,204.83 285.257,205.997 285.5,209C 285.117,213.294 282.95,216.127 279,217.5C 277.053,216.956 276.22,215.623 276.5,213.5C 276.782,210.269 278.115,207.602 280.5,205.5 Z"/></g>
<g><path style="opacity:1" fill="#dfedec" d="M 281.5,207.5 C 282.497,207.47 283.164,207.97 283.5,209C 282.888,211.058 281.888,212.891 280.5,214.5C 279.28,214.113 278.613,213.28 278.5,212C 279.555,210.493 280.555,208.993 281.5,207.5 Z"/></g>
<g><path style="opacity:1" fill="#0fac9a" d="M 262.5,214.5 C 263.931,215.082 265.264,215.915 266.5,217C 265.069,217.465 263.903,218.299 263,219.5C 262.167,218.667 261.333,217.833 260.5,217C 261.756,216.583 262.423,215.75 262.5,214.5 Z"/></g>
<g><path style="opacity:1" fill="#0fb5a2" d="M 292.5,216.5 C 290.664,218.588 288.331,219.921 285.5,220.5C 287.336,218.412 289.669,217.079 292.5,216.5 Z"/></g>
<g><path style="opacity:1" fill="#3e5e68" d="M 172.5,219.5 C 173.75,219.577 174.583,220.244 175,221.5C 175.414,221.043 175.914,220.709 176.5,220.5C 178.872,223.111 179.706,226.111 179,229.5C 177.989,230.337 176.822,230.67 175.5,230.5C 175.5,231.833 175.5,233.167 175.5,234.5C 174.448,234.351 173.448,234.517 172.5,235C 170.811,237.414 169.311,239.914 168,242.5C 166.989,243.337 165.822,243.67 164.5,243.5C 164.5,244.833 164.5,246.167 164.5,247.5C 160.167,244.833 155.833,242.167 151.5,239.5C 151.945,235.315 153.445,231.648 156,228.5C 157.011,227.663 158.178,227.33 159.5,227.5C 159.5,226.5 159.5,225.5 159.5,224.5C 161.46,225.138 163.293,225.138 165,224.5C 165.219,225.938 165.719,227.271 166.5,228.5C 167.787,225.059 169.787,222.059 172.5,219.5 Z"/></g>
<g><path style="opacity:1" fill="#016151" d="M 100.5,209.5 C 100.833,209.5 101.167,209.5 101.5,209.5C 102.147,210.274 102.48,211.274 102.5,212.5C 99.0064,237.034 97.1731,261.701 97,286.5C 95.9887,287.337 94.8221,287.67 93.5,287.5C 92.9555,282.526 92.6221,277.526 92.5,272.5C 93.5229,251.263 96.1896,230.263 100.5,209.5 Z"/></g>
<g><path style="opacity:1" fill="#0cb9a3" d="M 285.5,220.5 C 283.664,222.588 281.331,223.921 278.5,224.5C 280.336,222.412 282.669,221.079 285.5,220.5 Z"/></g>
<g><path style="opacity:1" fill="#025c4d" d="M 86.5,224.5 C 87.7899,225.058 88.6232,226.058 89,227.5C 89.1667,230 89.3333,232.5 89.5,235C 88.03,251.518 86.3633,268.018 84.5,284.5C 83.9568,293.18 86.2902,300.846 91.5,307.5C 90.1266,307.657 88.7932,307.49 87.5,307C 86.2949,305.624 84.9616,304.458 83.5,303.5C 80.9035,297.11 79.5702,290.443 79.5,283.5C 81.4244,263.772 83.7578,244.105 86.5,224.5 Z"/></g>
<g><path style="opacity:1" fill="#fca8a7" d="M 201.5,238.5 C 201.739,242.842 202.073,247.176 202.5,251.5C 218.632,256.1 234.632,261.1 250.5,266.5C 252.463,267.82 254.463,269.154 256.5,270.5C 256.371,277.845 256.038,285.178 255.5,292.5C 254.167,292.5 252.833,292.5 251.5,292.5C 250.791,291.596 249.791,291.263 248.5,291.5C 245.704,288.203 242.704,285.036 239.5,282C 235.197,280.95 230.863,280.116 226.5,279.5C 213.132,277.113 199.798,274.446 186.5,271.5C 186.5,270.833 186.167,270.5 185.5,270.5C 185.5,261.5 185.5,252.5 185.5,243.5C 187.199,243.66 188.866,243.494 190.5,243C 194.188,241.487 197.855,239.987 201.5,238.5 Z"/></g>
<g><path style="opacity:1" fill="#fca9a8" d="M 102.5,252.5 C 111.263,256.841 120.263,257.508 129.5,254.5C 128.415,261.509 127.582,268.509 127,275.5C 131.735,280.779 136.568,285.945 141.5,291C 142.527,291.513 143.527,292.013 144.5,292.5C 151.31,300.984 159.31,307.984 168.5,313.5C 173.435,317.258 178.268,321.258 183,325.5C 187.032,331.566 190.532,337.899 193.5,344.5C 193.5,346.167 193.5,347.833 193.5,349.5C 187.791,352.492 182.791,351.492 178.5,346.5C 178.5,345.833 178.167,345.5 177.5,345.5C 176.19,343.852 174.857,342.186 173.5,340.5C 168.803,339.647 164.47,337.98 160.5,335.5C 157.833,330.833 154.167,327.167 149.5,324.5C 137.575,315.86 125.242,307.694 112.5,300C 108.305,296.97 104.639,293.47 101.5,289.5C 100.167,277.144 100.501,264.81 102.5,252.5 Z"/></g>
<g><path style="opacity:1" fill="#1d3037" d="M 259.5,256.5 C 261.833,257.833 264.167,259.167 266.5,260.5C 262.835,293.49 260.168,326.49 258.5,359.5C 254.818,360.275 252.318,358.941 251,355.5C 250.628,348.16 250.795,340.827 251.5,333.5C 252.641,330.36 252.808,327.027 252,323.5C 241.26,330.036 230.26,336.036 219,341.5C 210.258,337.213 201.758,332.547 193.5,327.5C 193.369,326.624 193.702,325.957 194.5,325.5C 202.601,330.3 210.768,334.967 219,339.5C 230.394,333.553 241.561,327.22 252.5,320.5C 253.429,319.311 253.762,317.978 253.5,316.5C 253.5,315.833 253.5,315.167 253.5,314.5C 254.438,312.09 254.438,309.756 253.5,307.5C 254.833,306.167 254.833,304.833 253.5,303.5C 253.5,303.167 253.5,302.833 253.5,302.5C 254.833,301.5 254.833,300.5 253.5,299.5C 254.833,298.5 254.833,297.5 253.5,296.5C 255.048,296.179 255.715,295.179 255.5,293.5C 255.5,293.167 255.5,292.833 255.5,292.5C 256.038,285.178 256.371,277.845 256.5,270.5C 257.461,268.735 257.795,266.735 257.5,264.5C 258.255,261.947 258.922,259.28 259.5,256.5 Z"/></g>
<g><path style="opacity:1" fill="#ebeded" d="M 426.5,271.5 C 418.127,278.16 409.794,278.16 401.5,271.5C 400.569,262.761 404.569,258.427 413.5,258.5C 422.962,257.961 427.296,262.295 426.5,271.5 Z"/></g>
<g><path style="opacity:1" fill="#beeae7" d="M 257.5,264.5 C 257.795,266.735 257.461,268.735 256.5,270.5C 254.463,269.154 252.463,267.82 250.5,266.5C 252.555,265.052 254.722,263.719 257,262.5C 257.464,263.094 257.631,263.761 257.5,264.5 Z"/></g>
<g><path style="opacity:1" fill="#46646d" d="M 407.5,266.5 C 414.257,268.677 413.924,270.01 406.5,270.5C 406.433,269.041 406.766,267.708 407.5,266.5 Z"/></g>
<g><path style="opacity:1" fill="#05d8bb" d="M 327.5,263.5 C 329.144,263.286 330.644,263.62 332,264.5C 333.426,270.816 331.593,275.983 326.5,280C 324.833,280.667 323.167,280.667 321.5,280C 320.398,277.599 320.231,275.099 321,272.5C 322.611,269.062 324.777,266.062 327.5,263.5 Z"/></g>
<g><path style="opacity:1" fill="#c4f7f2" d="M 382.5,268.5 C 382.833,268.5 383.167,268.5 383.5,268.5C 389.5,271.833 395.5,275.167 401.5,278.5C 401.196,287.584 401.529,296.584 402.5,305.5C 401.375,307.377 401.709,309.21 403.5,311C 409.662,313.929 415.995,314.263 422.5,312C 425.136,310.59 425.803,308.757 424.5,306.5C 426.358,302.473 427.025,298.14 426.5,293.5C 434.199,297.344 441.532,301.678 448.5,306.5C 418.049,323.896 387.383,341.063 356.5,358C 306.898,387.751 256.898,416.918 206.5,445.5C 161.668,420.588 117.335,394.921 73.5,368.5C 84.6633,362.419 95.6633,356.086 106.5,349.5C 106.5,354.833 106.5,360.167 106.5,365.5C 103.723,364.416 102.39,365.583 102.5,369C 102.643,371.151 103.643,372.818 105.5,374C 111.393,377.827 117.393,378.327 123.5,375.5C 127.984,374.724 129.984,372.391 129.5,368.5C 129.987,367.527 130.487,366.527 131,365.5C 131.5,355.172 131.666,344.839 131.5,334.5C 134.76,333.226 137.76,331.56 140.5,329.5C 141.167,329.167 141.833,328.833 142.5,328.5C 143.167,328.167 143.833,327.833 144.5,327.5C 145.71,327.068 146.71,326.401 147.5,325.5C 148.167,325.167 148.833,324.833 149.5,324.5C 154.167,327.167 157.833,330.833 160.5,335.5C 159.833,337.167 159.167,338.833 158.5,340.5C 156.78,344.596 157.78,348.096 161.5,351C 170.647,357.455 180.647,359.455 191.5,357C 192.333,356.167 193.167,355.333 194,354.5C 194.808,350.973 194.641,347.64 193.5,344.5C 190.532,337.899 187.032,331.566 183,325.5C 178.268,321.258 173.435,317.258 168.5,313.5C 181.783,306.197 194.783,298.53 207.5,290.5C 214.332,287.588 220.666,283.921 226.5,279.5C 230.863,280.116 235.197,280.95 239.5,282C 242.704,285.036 245.704,288.203 248.5,291.5C 230.194,301.988 211.861,312.488 193.5,323C 192.748,323.671 192.414,324.504 192.5,325.5C 190.495,326.254 189.828,327.421 190.5,329C 199.821,334.575 209.321,339.742 219,344.5C 229.679,339.243 240.179,333.576 250.5,327.5C 251.466,329.396 251.799,331.396 251.5,333.5C 250.795,340.827 250.628,348.16 251,355.5C 252.318,358.941 254.818,360.275 258.5,359.5C 278.378,348.973 298.045,337.973 317.5,326.5C 317.5,328.5 317.5,330.5 317.5,332.5C 314.605,333.399 311.938,334.733 309.5,336.5C 308.566,337.568 308.232,338.901 308.5,340.5C 304.545,343.039 304.878,345.372 309.5,347.5C 296.251,355.04 283.085,362.707 270,370.5C 269.316,371.784 269.483,372.951 270.5,374C 274.091,376.805 278.091,377.805 282.5,377C 294.5,370 306.5,363 318.5,356C 323.793,355.242 328.793,353.576 333.5,351C 342.335,345.415 351.335,340.081 360.5,335C 361.13,333.108 362.13,331.441 363.5,330C 371.995,325.587 380.328,320.92 388.5,316C 389.451,315.282 389.617,314.449 389,313.5C 385.672,309.583 381.505,308.083 376.5,309C 368.139,313.845 359.806,318.678 351.5,323.5C 350.173,319.184 348.84,314.851 347.5,310.5C 347.833,309.833 348.167,309.167 348.5,308.5C 358.914,302.878 369.08,296.878 379,290.5C 379.667,289.167 380.333,287.833 381,286.5C 381.252,280.452 381.752,274.452 382.5,268.5 Z"/></g>
<g><path style="opacity:1" fill="#1c565c" d="M 186.5,271.5 C 199.798,274.446 213.132,277.113 226.5,279.5C 220.666,283.921 214.332,287.588 207.5,290.5C 201.709,285.766 195.709,281.266 189.5,277C 187.393,275.736 186.393,273.903 186.5,271.5 Z"/></g>
<g><path style="opacity:1" fill="#395a64" d="M 185.5,270.5 C 186.167,270.5 186.5,270.833 186.5,271.5C 186.393,273.903 187.393,275.736 189.5,277C 195.709,281.266 201.709,285.766 207.5,290.5C 194.783,298.53 181.783,306.197 168.5,313.5C 159.31,307.984 151.31,300.984 144.5,292.5C 160.466,292.571 173.966,286.904 185,275.5C 185.494,273.866 185.66,272.199 185.5,270.5 Z"/></g>
<g><path style="opacity:1" fill="#0a8370" d="M 111.5,191.5 C 113.735,191.205 115.735,191.539 117.5,192.5C 113.805,194.869 111.305,198.203 110,202.5C 105.292,218.963 102.792,235.63 102.5,252.5C 100.501,264.81 100.167,277.144 101.5,289.5C 98.5657,293.279 99.2324,296.446 103.5,299C 118.405,307.611 133.072,316.445 147.5,325.5C 146.71,326.401 145.71,327.068 144.5,327.5C 144.586,326.504 144.252,325.671 143.5,325C 126.006,315.756 109.006,305.756 92.5,295C 88.5649,292.012 88.8983,289.512 93.5,287.5C 94.8221,287.67 95.9887,287.337 97,286.5C 97.1731,261.701 99.0064,237.034 102.5,212.5C 102.48,211.274 102.147,210.274 101.5,209.5C 102.999,203.501 105.332,197.834 108.5,192.5C 109.791,192.737 110.791,192.404 111.5,191.5 Z"/></g>
<g><path style="opacity:1" fill="#11e0cb" d="M 401.5,271.5 C 409.794,278.16 418.127,278.16 426.5,271.5C 426.5,278.833 426.5,286.167 426.5,293.5C 427.025,298.14 426.358,302.473 424.5,306.5C 419.241,309.361 413.575,310.195 407.5,309C 405.416,308.303 403.749,307.136 402.5,305.5C 401.529,296.584 401.196,287.584 401.5,278.5C 401.5,276.167 401.5,273.833 401.5,271.5 Z"/></g>
<g><path style="opacity:1" fill="#33646b" d="M 411.5,282.5 C 413.824,283.33 415.824,284.663 417.5,286.5C 415.667,288.833 413.833,291.167 412,293.5C 409.342,292.306 408.176,293.306 408.5,296.5C 405.95,296.561 404.45,297.894 404,300.5C 403.333,298.5 403.333,296.5 404,294.5C 404.71,293.027 405.876,292.36 407.5,292.5C 407.338,290.473 407.505,288.473 408,286.5C 409.011,287.337 410.178,287.67 411.5,287.5C 411.5,285.833 411.5,284.167 411.5,282.5 Z"/></g>
<g><path style="opacity:1" fill="#0ccfb5" d="M 251.5,292.5 C 252.833,292.5 254.167,292.5 255.5,292.5C 255.5,292.833 255.5,293.167 255.5,293.5C 252.46,294.68 249.794,296.347 247.5,298.5C 244.807,299.552 242.14,300.552 239.5,301.5C 239.5,300.833 239.5,300.167 239.5,299.5C 243.5,297.167 247.5,294.833 251.5,292.5 Z"/></g>
<g><path style="opacity:1" fill="#12baa3" d="M 253.5,296.5 C 254.833,297.5 254.833,298.5 253.5,299.5C 249.5,298.5 249.5,297.5 253.5,296.5 Z"/></g>
<g><path style="opacity:1" fill="#365862" d="M 320.5,307.5 C 319.391,307.443 318.391,307.11 317.5,306.5C 317.389,305.883 317.056,305.383 316.5,305C 323.671,300.58 331.004,296.414 338.5,292.5C 339.672,292.919 340.672,293.585 341.5,294.5C 334.604,299.109 327.604,303.442 320.5,307.5 Z"/></g>
<g><path style="opacity:1" fill="#33616b" d="M 412.5,296.5 C 416.192,297.029 416.858,298.529 414.5,301C 413.391,301.638 412.225,302.138 411,302.5C 408.823,301.477 406.656,301.31 404.5,302C 405.685,300.647 407.019,299.48 408.5,298.5C 410.866,299.984 412.199,299.317 412.5,296.5 Z"/></g>
<g><path style="opacity:1" fill="#205f61" d="M 255.5,293.5 C 255.715,295.179 255.048,296.179 253.5,296.5C 249.5,297.5 249.5,298.5 253.5,299.5C 254.833,300.5 254.833,301.5 253.5,302.5C 251.897,301.323 250.564,301.489 249.5,303C 250.793,303.49 252.127,303.657 253.5,303.5C 254.833,304.833 254.833,306.167 253.5,307.5C 252.542,304.875 251.376,304.875 250,307.5C 249.338,303.246 247.505,302.58 244.5,305.5C 244.935,304.038 244.102,303.038 242,302.5C 240.7,303.707 239.2,304.374 237.5,304.5C 238.551,303.778 239.218,302.778 239.5,301.5C 242.14,300.552 244.807,299.552 247.5,298.5C 249.794,296.347 252.46,294.68 255.5,293.5 Z"/></g>
<g><path style="opacity:1" fill="#0ecfb3" d="M 244.5,300.5 C 246.983,300.73 247.483,301.397 246,302.5C 244.97,302.164 244.47,301.497 244.5,300.5 Z"/></g>
<g><path style="opacity:1" fill="#0ecdb2" d="M 247.5,298.5 C 249.983,298.73 250.483,299.397 249,300.5C 247.97,300.164 247.47,299.497 247.5,298.5 Z"/></g>
<g><path style="opacity:1" fill="#197968" d="M 101.5,289.5 C 104.639,293.47 108.305,296.97 112.5,300C 125.242,307.694 137.575,315.86 149.5,324.5C 148.833,324.833 148.167,325.167 147.5,325.5C 133.072,316.445 118.405,307.611 103.5,299C 99.2324,296.446 98.5657,293.279 101.5,289.5 Z"/></g>
<g><path style="opacity:1" fill="#0fcbaf" d="M 253.5,302.5 C 253.5,302.833 253.5,303.167 253.5,303.5C 252.127,303.657 250.793,303.49 249.5,303C 250.564,301.489 251.897,301.323 253.5,302.5 Z"/></g>
<g><path style="opacity:1" fill="#199e8e" d="M 239.5,299.5 C 239.5,300.167 239.5,300.833 239.5,301.5C 239.218,302.778 238.551,303.778 237.5,304.5C 235.83,304.751 234.33,305.418 233,306.5C 232.329,305.748 231.496,305.414 230.5,305.5C 233.318,303.255 236.318,301.255 239.5,299.5 Z"/></g>
<g><path style="opacity:1" fill="#189f91" d="M 253.5,307.5 C 252.244,307.904 251.077,308.571 250,309.5C 247.898,308.962 247.065,307.962 247.5,306.5C 245.929,307.309 244.262,307.643 242.5,307.5C 242.417,305.43 241.417,305.097 239.5,306.5C 238.287,306.253 237.62,305.586 237.5,304.5C 239.2,304.374 240.7,303.707 242,302.5C 244.102,303.038 244.935,304.038 244.5,305.5C 247.505,302.58 249.338,303.246 250,307.5C 251.376,304.875 252.542,304.875 253.5,307.5 Z"/></g>
<g><path style="opacity:1" fill="#1a3238" d="M 142.5,328.5 C 141.833,328.833 141.167,329.167 140.5,329.5C 136.967,328.626 133.634,327.293 130.5,325.5C 126.494,321.276 121.494,319.609 115.5,320.5C 115.785,318.712 115.452,317.045 114.5,315.5C 110.871,313.7 107.371,311.7 104,309.5C 103.333,314.833 103.333,320.167 104,325.5C 104.671,326.252 105.504,326.586 106.5,326.5C 106.5,328.5 106.5,330.5 106.5,332.5C 105.549,333.919 105.216,335.585 105.5,337.5C 103.856,337.714 102.356,337.38 101,336.5C 100.818,333.774 100.318,331.107 99.5,328.5C 96.9952,326.747 94.3286,325.247 91.5,324C 89.8446,322.556 89.178,320.722 89.5,318.5C 93.0901,319.628 96.4234,321.295 99.5,323.5C 100.495,317.872 100.829,312.206 100.5,306.5C 96.8733,305.72 93.54,304.22 90.5,302C 88.6751,300.534 88.1751,298.701 89,296.5C 106.814,307.318 124.647,317.985 142.5,328.5 Z"/></g>
<g><path style="opacity:1" fill="#11bea6" d="M 230.5,305.5 C 231.833,306.5 231.833,307.5 230.5,308.5C 225.167,307.5 225.167,306.5 230.5,305.5 Z"/></g>
<g><path style="opacity:1" fill="#1c3038" d="M 317.5,306.5 C 318.391,307.11 319.391,307.443 320.5,307.5C 321.28,321.184 322.28,334.851 323.5,348.5C 318.368,346.1 313.368,343.434 308.5,340.5C 308.232,338.901 308.566,337.568 309.5,336.5C 312.102,338.142 314.769,339.808 317.5,341.5C 318.803,338.355 318.803,335.355 317.5,332.5C 317.5,330.5 317.5,328.5 317.5,326.5C 316.43,319.675 316.43,313.008 317.5,306.5 Z"/></g>
<g><path style="opacity:1" fill="#93f1e6" d="M 448.5,306.5 C 448.827,311.214 448.493,315.88 447.5,320.5C 367.303,367.098 286.969,413.431 206.5,459.5C 206.5,454.833 206.5,450.167 206.5,445.5C 256.898,416.918 306.898,387.751 356.5,358C 387.383,341.063 418.049,323.896 448.5,306.5 Z"/></g>
<g><path style="opacity:1" fill="#e5eae9" d="M 402.5,305.5 C 403.749,307.136 405.416,308.303 407.5,309C 413.575,310.195 419.241,309.361 424.5,306.5C 425.803,308.757 425.136,310.59 422.5,312C 415.995,314.263 409.662,313.929 403.5,311C 401.709,309.21 401.375,307.377 402.5,305.5 Z"/></g>
<g><path style="opacity:1" fill="#066b5b" d="M 115.5,320.5 C 111.63,321.263 108.63,323.263 106.5,326.5C 105.504,326.586 104.671,326.252 104,325.5C 103.333,320.167 103.333,314.833 104,309.5C 107.371,311.7 110.871,313.7 114.5,315.5C 115.452,317.045 115.785,318.712 115.5,320.5 Z"/></g>
<g><path style="opacity:1" fill="#0bd2b5" d="M 230.5,308.5 C 231.675,308.281 232.675,308.614 233.5,309.5C 232.66,310.735 231.66,311.735 230.5,312.5C 228.897,313.677 227.564,313.511 226.5,312C 227.731,310.595 229.064,309.429 230.5,308.5 Z"/></g>
<g><path style="opacity:1" fill="#225a5d" d="M 237.5,304.5 C 237.62,305.586 238.287,306.253 239.5,306.5C 241.417,305.097 242.417,305.43 242.5,307.5C 244.262,307.643 245.929,307.309 247.5,306.5C 247.065,307.962 247.898,308.962 250,309.5C 251.077,308.571 252.244,307.904 253.5,307.5C 254.438,309.756 254.438,312.09 253.5,314.5C 250.2,316.108 246.867,317.775 243.5,319.5C 242.893,319.376 242.56,319.043 242.5,318.5C 241.323,316.216 239.656,315.882 237.5,317.5C 237.063,315.926 236.063,314.759 234.5,314C 236.301,313.683 236.634,313.016 235.5,312C 233.718,311.878 232.052,312.378 230.5,313.5C 230.5,313.167 230.5,312.833 230.5,312.5C 231.66,311.735 232.66,310.735 233.5,309.5C 232.675,308.614 231.675,308.281 230.5,308.5C 231.833,307.5 231.833,306.5 230.5,305.5C 231.496,305.414 232.329,305.748 233,306.5C 234.33,305.418 235.83,304.751 237.5,304.5 Z"/></g>
<g><path style="opacity:1" fill="#10c2aa" d="M 244.5,311.5 C 243.64,313.97 242.306,314.137 240.5,312C 241.793,311.51 243.127,311.343 244.5,311.5 Z"/></g>
<g><path style="opacity:1" fill="#0dcdb2" d="M 249.5,310.5 C 251.983,310.73 252.483,311.397 251,312.5C 249.97,312.164 249.47,311.497 249.5,310.5 Z"/></g>
<g><path style="opacity:1" fill="#0fc7ae" d="M 244.5,311.5 C 244.948,309.535 245.948,309.202 247.5,310.5C 246.675,311.386 245.675,311.719 244.5,311.5 Z"/></g>
<g><path style="opacity:1" fill="#0cd0b7" d="M 236.5,309.5 C 238.983,309.73 239.483,310.397 238,311.5C 236.97,311.164 236.47,310.497 236.5,309.5 Z"/></g>
<g><path style="opacity:1" fill="#12bfa9" d="M 242.5,307.5 C 242.611,308.117 242.944,308.617 243.5,309C 242.056,309.781 240.723,309.614 239.5,308.5C 240.325,307.614 241.325,307.281 242.5,307.5 Z"/></g>
<g><path style="opacity:1" fill="#0dceb2" d="M 234.5,306.5 C 236.983,306.73 237.483,307.397 236,308.5C 234.97,308.164 234.47,307.497 234.5,306.5 Z"/></g>
<g><path style="opacity:1" fill="#2a4c53" d="M 248.5,291.5 C 249.791,291.263 250.791,291.596 251.5,292.5C 247.5,294.833 243.5,297.167 239.5,299.5C 236.318,301.255 233.318,303.255 230.5,305.5C 225.167,306.5 225.167,307.5 230.5,308.5C 229.064,309.429 227.731,310.595 226.5,312C 227.564,313.511 228.897,313.677 230.5,312.5C 230.5,312.833 230.5,313.167 230.5,313.5C 229.262,313.81 229.262,314.31 230.5,315C 232.65,316.411 234.984,317.245 237.5,317.5C 237.328,318.492 237.662,319.158 238.5,319.5C 240.308,320.394 242.142,321.394 244,322.5C 247.494,320.947 250.661,318.947 253.5,316.5C 253.762,317.978 253.429,319.311 252.5,320.5C 241.561,327.22 230.394,333.553 219,339.5C 210.768,334.967 202.601,330.3 194.5,325.5C 193.702,325.957 193.369,326.624 193.5,327.5C 192.662,327.158 192.328,326.492 192.5,325.5C 192.414,324.504 192.748,323.671 193.5,323C 211.861,312.488 230.194,301.988 248.5,291.5 Z"/></g>
<g><path style="opacity:1" fill="#19998d" d="M 217.5,311.5 C 218.978,311.238 220.311,311.571 221.5,312.5C 218.833,314.167 216.167,315.833 213.5,317.5C 212.692,317.192 212.025,316.692 211.5,316C 213.684,314.637 215.684,313.137 217.5,311.5 Z"/></g>
<g><path style="opacity:1" fill="#0ed0b3" d="M 223.5,308.5 C 228.1,308.345 228.433,309.012 224.5,310.5C 222.279,310.561 221.946,309.895 223.5,308.5 Z"/></g>
<g><path style="opacity:1" fill="#0bd1b5" d="M 237.5,314.5 C 238.386,313.224 239.386,313.224 240.5,314.5C 239.575,315.562 238.575,315.562 237.5,314.5 Z"/></g>
<g><path style="opacity:1" fill="#0bd2b6" d="M 237.5,317.5 C 234.984,317.245 232.65,316.411 230.5,315C 229.262,314.31 229.262,313.81 230.5,313.5C 232.052,312.378 233.718,311.878 235.5,312C 236.634,313.016 236.301,313.683 234.5,314C 236.063,314.759 237.063,315.926 237.5,317.5 Z"/></g>
<g><path style="opacity:1" fill="#16a190" d="M 246.5,312.5 C 248.745,312.541 249.412,313.375 248.5,315C 246.55,316.496 244.55,316.663 242.5,315.5C 244.184,314.85 245.517,313.85 246.5,312.5 Z"/></g>
<g><path style="opacity:1" fill="#14bea7" d="M 218.5,316.5 C 219.708,315.218 221.042,315.218 222.5,316.5C 221.192,317.626 219.858,317.626 218.5,316.5 Z"/></g>
<g><path style="opacity:1" fill="#0fc8ad" d="M 242.5,318.5 C 241.292,319.234 239.959,319.567 238.5,319.5C 237.662,319.158 237.328,318.492 237.5,317.5C 239.656,315.882 241.323,316.216 242.5,318.5 Z"/></g>
<g><path style="opacity:1" fill="#0cd0b5" d="M 207.5,317.5 C 208.675,317.281 209.675,317.614 210.5,318.5C 208.858,321.184 206.858,321.684 204.5,320C 205.571,319.148 206.571,318.315 207.5,317.5 Z"/></g>
<g><path style="opacity:1" fill="#1c9589" d="M 229.5,317.5 C 232.254,318.366 234.921,319.533 237.5,321C 234.879,323.201 232.046,325.035 229,326.5C 225.841,325.255 226.007,324.088 229.5,323C 228.09,322.632 227.09,321.799 226.5,320.5C 227.993,319.859 228.993,318.859 229.5,317.5 Z"/></g>
<g><path style="opacity:1" fill="#1c867e" d="M 253.5,314.5 C 253.5,315.167 253.5,315.833 253.5,316.5C 250.661,318.947 247.494,320.947 244,322.5C 242.142,321.394 240.308,320.394 238.5,319.5C 239.959,319.567 241.292,319.234 242.5,318.5C 242.56,319.043 242.893,319.376 243.5,319.5C 246.867,317.775 250.2,316.108 253.5,314.5 Z"/></g>
<g><path style="opacity:1" fill="#0fc8b1" d="M 211.5,321.5 C 211.179,323.048 210.179,323.715 208.5,323.5C 208.821,321.952 209.821,321.285 211.5,321.5 Z"/></g>
<g><path style="opacity:1" fill="#16a897" d="M 217.5,321.5 C 217.611,322.117 217.944,322.617 218.5,323C 216.871,323.585 215.371,324.419 214,325.5C 213.5,325.167 213,324.833 212.5,324.5C 215.229,322.633 214.896,321.633 211.5,321.5C 211.47,320.503 211.97,319.836 213,319.5C 214.406,320.414 215.906,321.08 217.5,321.5 Z"/></g>
<g><path style="opacity:1" fill="#0eceb0" d="M 223.5,321.5 C 225.983,321.73 226.483,322.397 225,323.5C 223.97,323.164 223.47,322.497 223.5,321.5 Z"/></g>
<g><path style="opacity:1" fill="#edefef" d="M 115.5,320.5 C 121.494,319.609 126.494,321.276 130.5,325.5C 130.5,325.833 130.5,326.167 130.5,326.5C 132.244,332.938 129.91,336.772 123.5,338C 116.84,339.732 111.174,338.232 106.5,333.5C 106.5,333.167 106.5,332.833 106.5,332.5C 106.5,330.5 106.5,328.5 106.5,326.5C 108.63,323.263 111.63,321.263 115.5,320.5 Z"/></g>
<g><path style="opacity:1" fill="#0fc8ac" d="M 201.5,323.5 C 201.389,322.883 201.056,322.383 200.5,322C 201.833,321.333 203.167,321.333 204.5,322C 203.756,323.039 202.756,323.539 201.5,323.5 Z"/></g>
<g><path style="opacity:1" fill="#0dcbb1" d="M 201.5,323.5 C 201.973,324.906 202.973,325.573 204.5,325.5C 204.5,326.167 204.5,326.833 204.5,327.5C 201.86,327.046 199.527,325.879 197.5,324C 198.793,323.51 200.127,323.343 201.5,323.5 Z"/></g>
<g><path style="opacity:1" fill="#19a093" d="M 237.5,322.5 C 238.978,322.238 240.311,322.571 241.5,323.5C 239,325.167 236.5,326.833 234,328.5C 232.941,328.37 232.108,327.87 231.5,327C 234.095,326.111 236.095,324.611 237.5,322.5 Z"/></g>
<g><path style="opacity:1" fill="#12c0a7" d="M 219.5,323.5 C 222.293,323.74 222.793,324.74 221,326.5C 220.329,325.748 219.496,325.414 218.5,325.5C 218.833,324.833 219.167,324.167 219.5,323.5 Z"/></g>
<g><path style="opacity:1" fill="#0b705f" d="M 130.5,326.5 C 130.5,326.167 130.5,325.833 130.5,325.5C 133.634,327.293 136.967,328.626 140.5,329.5C 137.76,331.56 134.76,333.226 131.5,334.5C 131.806,331.615 131.473,328.948 130.5,326.5 Z"/></g>
<g><path style="opacity:1" fill="#a3cecb" d="M 251.5,333.5 C 251.799,331.396 251.466,329.396 250.5,327.5C 240.179,333.576 229.679,339.243 219,344.5C 209.321,339.742 199.821,334.575 190.5,329C 189.828,327.421 190.495,326.254 192.5,325.5C 192.328,326.492 192.662,327.158 193.5,327.5C 201.758,332.547 210.258,337.213 219,341.5C 230.26,336.036 241.26,330.036 252,323.5C 252.808,327.027 252.641,330.36 251.5,333.5 Z"/></g>
<g><path style="opacity:1" fill="#0dcbb0" d="M 210.5,331.5 C 208.833,330.833 207.167,330.167 205.5,329.5C 205.843,327.775 206.843,327.275 208.5,328C 209.833,329 211.167,330 212.5,331C 211.906,331.464 211.239,331.631 210.5,331.5 Z"/></g>
<g><path style="opacity:1" fill="#199d8e" d="M 218.5,325.5 C 219.659,327.25 221.326,328.25 223.5,328.5C 222.694,329.728 221.694,330.728 220.5,331.5C 218.658,333.034 217.325,332.7 216.5,330.5C 217.025,329.808 217.692,329.308 218.5,329C 214.555,327.591 214.555,326.425 218.5,325.5 Z"/></g>
<g><path style="opacity:1" fill="#10c6ad" d="M 223.5,328.5 C 223.389,327.883 223.056,327.383 222.5,327C 223.833,326.333 225.167,326.333 226.5,327C 225.756,328.039 224.756,328.539 223.5,328.5 Z"/></g>
<g><path style="opacity:1" fill="#496670" d="M 122.5,328.5 C 125.166,328.066 126.333,329.066 126,331.5C 124.035,332.885 122.202,332.718 120.5,331C 121.381,330.292 122.047,329.458 122.5,328.5 Z"/></g>
<g><path style="opacity:1" fill="#12b9a2" d="M 215.5,334.5 C 213.973,334.573 212.973,333.906 212.5,332.5C 215.35,331.072 216.35,331.739 215.5,334.5 Z"/></g>
<g><path style="opacity:1" fill="#226767" d="M 211.5,321.5 C 214.896,321.633 215.229,322.633 212.5,324.5C 213,324.833 213.5,325.167 214,325.5C 215.371,324.419 216.871,323.585 218.5,323C 217.944,322.617 217.611,322.117 217.5,321.5C 218.833,321.5 219.5,322.167 219.5,323.5C 219.167,324.167 218.833,324.833 218.5,325.5C 214.555,326.425 214.555,327.591 218.5,329C 217.692,329.308 217.025,329.808 216.5,330.5C 217.325,332.7 218.658,333.034 220.5,331.5C 219.15,332.65 219.316,333.317 221,333.5C 223.99,331.85 226.99,330.183 230,328.5C 230.667,329.167 230.667,329.833 230,330.5C 226.816,332.758 223.483,334.758 220,336.5C 218.7,335.293 217.2,334.626 215.5,334.5C 216.35,331.739 215.35,331.072 212.5,332.5C 211.508,332.672 210.842,332.338 210.5,331.5C 211.239,331.631 211.906,331.464 212.5,331C 211.167,330 209.833,329 208.5,328C 206.843,327.275 205.843,327.775 205.5,329.5C 204.662,329.158 204.328,328.492 204.5,327.5C 204.5,326.833 204.5,326.167 204.5,325.5C 205.183,323.824 206.517,323.157 208.5,323.5C 210.179,323.715 211.179,323.048 211.5,321.5 Z"/></g>
<g><path style="opacity:1" fill="#0dcfb5" d="M 212.5,327.5 C 214.983,327.73 215.483,328.397 214,329.5C 212.97,329.164 212.47,328.497 212.5,327.5 Z"/></g>
<g><path style="opacity:1" fill="#07090b" d="M 317.5,332.5 C 318.803,335.355 318.803,338.355 317.5,341.5C 314.769,339.808 312.102,338.142 309.5,336.5C 311.938,334.733 314.605,333.399 317.5,332.5 Z"/></g>
<g><path style="opacity:1" fill="#17e3ce" d="M 130.5,326.5 C 131.473,328.948 131.806,331.615 131.5,334.5C 131.666,344.839 131.5,355.172 131,365.5C 130.487,366.527 129.987,367.527 129.5,368.5C 124.205,371.362 118.539,372.196 112.5,371C 110.416,370.303 108.749,369.136 107.5,367.5C 107.167,366.833 106.833,366.167 106.5,365.5C 106.5,360.167 106.5,354.833 106.5,349.5C 106.5,344.167 106.5,338.833 106.5,333.5C 111.174,338.232 116.84,339.732 123.5,338C 129.91,336.772 132.244,332.938 130.5,326.5 Z"/></g>
<g><path style="opacity:1" fill="#2f4750" d="M 160.5,335.5 C 164.47,337.98 168.803,339.647 173.5,340.5C 174.857,342.186 176.19,343.852 177.5,345.5C 176.011,347.645 175.011,349.978 174.5,352.5C 173.778,352.918 173.278,353.584 173,354.5C 167.193,352.683 162.527,349.35 159,344.5C 158.51,343.207 158.343,341.873 158.5,340.5C 159.167,338.833 159.833,337.167 160.5,335.5 Z"/></g>
<g><path style="opacity:1" fill="#a7d4cf" d="M 308.5,340.5 C 313.368,343.434 318.368,346.1 323.5,348.5C 333.273,343.445 342.94,338.112 352.5,332.5C 353.611,329.374 353.277,326.374 351.5,323.5C 359.806,318.678 368.139,313.845 376.5,309C 381.505,308.083 385.672,309.583 389,313.5C 389.617,314.449 389.451,315.282 388.5,316C 380.328,320.92 371.995,325.587 363.5,330C 362.13,331.441 361.13,333.108 360.5,335C 351.335,340.081 342.335,345.415 333.5,351C 328.793,353.576 323.793,355.242 318.5,356C 306.5,363 294.5,370 282.5,377C 278.091,377.805 274.091,376.805 270.5,374C 269.483,372.951 269.316,371.784 270,370.5C 283.085,362.707 296.251,355.04 309.5,347.5C 304.878,345.372 304.545,343.039 308.5,340.5 Z"/></g>
<g><path style="opacity:1" fill="#33646c" d="M 119.5,344.5 C 120.675,345.974 121.675,347.64 122.5,349.5C 123.167,349.167 123.833,348.833 124.5,348.5C 125.308,350.423 125.808,352.423 126,354.5C 126.414,354.043 126.914,353.709 127.5,353.5C 128.647,355.765 128.814,358.098 128,360.5C 126.951,358.893 125.451,358.227 123.5,358.5C 123.895,355.477 122.895,354.477 120.5,355.5C 118.445,353.445 116.779,351.112 115.5,348.5C 116.549,346.784 117.882,345.451 119.5,344.5 Z"/></g>
<g><path style="opacity:1" fill="#a1cfcc" d="M 158.5,340.5 C 158.343,341.873 158.51,343.207 159,344.5C 162.527,349.35 167.193,352.683 173,354.5C 173.278,353.584 173.778,352.918 174.5,352.5C 174.414,353.496 174.748,354.329 175.5,355C 180.167,355.667 184.833,355.667 189.5,355C 190.849,354.228 191.682,353.061 192,351.5C 192.333,351.833 192.667,352.167 193,352.5C 193.483,351.552 193.649,350.552 193.5,349.5C 193.5,347.833 193.5,346.167 193.5,344.5C 194.641,347.64 194.808,350.973 194,354.5C 193.167,355.333 192.333,356.167 191.5,357C 180.647,359.455 170.647,357.455 161.5,351C 157.78,348.096 156.78,344.596 158.5,340.5 Z"/></g>
<g><path style="opacity:1" fill="#2d4851" d="M 178.5,346.5 C 182.791,351.492 187.791,352.492 193.5,349.5C 193.649,350.552 193.483,351.552 193,352.5C 192.667,352.167 192.333,351.833 192,351.5C 191.682,353.061 190.849,354.228 189.5,355C 184.833,355.667 180.167,355.667 175.5,355C 174.748,354.329 174.414,353.496 174.5,352.5C 176.192,350.795 177.525,348.795 178.5,346.5 Z"/></g>
<g><path style="opacity:1" fill="#20b09d" d="M 177.5,345.5 C 178.167,345.5 178.5,345.833 178.5,346.5C 177.525,348.795 176.192,350.795 174.5,352.5C 175.011,349.978 176.011,347.645 177.5,345.5 Z"/></g>
<g><path style="opacity:1" fill="#33626a" d="M 117.5,357.5 C 119.148,358.81 120.814,360.143 122.5,361.5C 125.471,360.305 126.971,361.305 127,364.5C 124.56,363.729 122.06,363.562 119.5,364C 116.408,362.541 115.742,360.374 117.5,357.5 Z"/></g>
<g><path style="opacity:1" fill="#f89678" d="M 261.5,388.5 C 261.675,390.621 261.341,392.621 260.5,394.5C 260.167,394.5 259.833,394.5 259.5,394.5C 256.739,395.92 253.739,396.587 250.5,396.5C 249.766,395.292 249.433,393.959 249.5,392.5C 249.957,385.413 247.291,380.08 241.5,376.5C 242.148,372.404 240.148,370.404 235.5,370.5C 234.4,369.395 233.733,368.062 233.5,366.5C 235.836,364.609 238.502,364.109 241.5,365C 245.666,367.917 249.999,370.584 254.5,373C 257.383,377.941 259.717,383.108 261.5,388.5 Z"/></g>
<g><path style="opacity:1" fill="#fcbda6" d="M 164.5,367.5 C 172.511,367.944 174.511,371.61 170.5,378.5C 173.422,378.899 176.422,379.066 179.5,379C 183.5,382.667 183.5,386.333 179.5,390C 170.493,393.549 163.159,391.549 157.5,384C 153.172,383.674 149.672,381.84 147,378.5C 146.08,375.692 146.913,373.525 149.5,372C 152.833,371.667 156.167,371.333 159.5,371C 161.584,370.303 163.251,369.136 164.5,367.5 Z"/></g>
<g><path style="opacity:1" fill="#81f0e4" d="M 232.5,366.5 C 230.381,368.4 228.047,370.066 225.5,371.5C 215.239,369.704 206.905,373.037 200.5,381.5C 200.624,382.107 200.957,382.44 201.5,382.5C 200.194,383.467 199.527,384.801 199.5,386.5C 196.366,387.901 193.366,389.568 190.5,391.5C 189.227,392.257 189.227,392.923 190.5,393.5C 190.833,394.167 191.167,394.833 191.5,395.5C 190.833,395.5 190.5,395.833 190.5,396.5C 190.167,396.5 189.833,396.5 189.5,396.5C 185.951,387.531 187.951,380.031 195.5,374C 206.871,366.572 219.205,364.072 232.5,366.5 Z"/></g>
<g><path style="opacity:1" fill="#c8696a" d="M 235.5,370.5 C 240.148,370.404 242.148,372.404 241.5,376.5C 241.082,377.222 240.416,377.722 239.5,378C 236.5,378.667 233.5,378.667 230.5,378C 228.485,376.445 228.152,374.611 229.5,372.5C 231.173,370.914 233.173,370.247 235.5,370.5 Z"/></g>
<g><path style="opacity:1" fill="#4ceddd" d="M 73.5,368.5 C 117.335,394.921 161.668,420.588 206.5,445.5C 206.5,450.167 206.5,454.833 206.5,459.5C 162.059,434.443 117.725,409.11 73.5,383.5C 72.1863,378.348 72.1863,373.348 73.5,368.5 Z"/></g>
<g><path style="opacity:1" fill="#e3e9e8" d="M 107.5,367.5 C 108.749,369.136 110.416,370.303 112.5,371C 118.539,372.196 124.205,371.362 129.5,368.5C 129.984,372.391 127.984,374.724 123.5,375.5C 119.486,375.666 115.486,375.499 111.5,375C 107.472,373.566 106.139,371.066 107.5,367.5 Z"/></g>
<g><path style="opacity:1" fill="#add8d3" d="M 106.5,365.5 C 106.833,366.167 107.167,366.833 107.5,367.5C 106.139,371.066 107.472,373.566 111.5,375C 115.486,375.499 119.486,375.666 123.5,375.5C 117.393,378.327 111.393,377.827 105.5,374C 103.643,372.818 102.643,371.151 102.5,369C 102.39,365.583 103.723,364.416 106.5,365.5 Z"/></g>
<g><path style="opacity:1" fill="#fbcebf" d="M 232.5,366.5 C 232.833,366.5 233.167,366.5 233.5,366.5C 233.733,368.062 234.4,369.395 235.5,370.5C 233.173,370.247 231.173,370.914 229.5,372.5C 228.152,374.611 228.485,376.445 230.5,378C 233.5,378.667 236.5,378.667 239.5,378C 240.416,377.722 241.082,377.222 241.5,376.5C 247.291,380.08 249.957,385.413 249.5,392.5C 229.66,392.17 209.993,392.503 190.5,393.5C 189.227,392.923 189.227,392.257 190.5,391.5C 193.366,389.568 196.366,387.901 199.5,386.5C 200.874,388.959 203.04,389.959 206,389.5C 208.59,389.624 210.923,388.958 213,387.5C 213.711,385.633 213.211,384.133 211.5,383C 208.518,382.502 205.518,382.335 202.5,382.5C 202.5,381.833 202.833,381.5 203.5,381.5C 210.463,379.852 216.796,376.852 222.5,372.5C 223.609,372.443 224.609,372.11 225.5,371.5C 228.047,370.066 230.381,368.4 232.5,366.5 Z"/></g>
<g><path style="opacity:1" fill="#80f1e3" d="M 222.5,372.5 C 216.796,376.852 210.463,379.852 203.5,381.5C 205.206,377.621 208.206,375.121 212.5,374C 215.793,373.174 219.126,372.674 222.5,372.5 Z"/></g>
<g><path style="opacity:1" fill="#2ee3c9" d="M 225.5,371.5 C 224.609,372.11 223.609,372.443 222.5,372.5C 219.126,372.674 215.793,373.174 212.5,374C 208.206,375.121 205.206,377.621 203.5,381.5C 202.833,381.5 202.5,381.833 202.5,382.5C 202.167,382.5 201.833,382.5 201.5,382.5C 200.957,382.44 200.624,382.107 200.5,381.5C 206.905,373.037 215.239,369.704 225.5,371.5 Z"/></g>
<g><path style="opacity:1" fill="#c6696a" d="M 201.5,382.5 C 201.833,382.5 202.167,382.5 202.5,382.5C 205.518,382.335 208.518,382.502 211.5,383C 213.211,384.133 213.711,385.633 213,387.5C 210.923,388.958 208.59,389.624 206,389.5C 203.04,389.959 200.874,388.959 199.5,386.5C 199.527,384.801 200.194,383.467 201.5,382.5 Z"/></g>
<g><path style="opacity:1" fill="#c7696b" d="M 224.5,382.5 C 227.978,382.184 231.312,382.684 234.5,384C 235.554,385.388 235.72,386.888 235,388.5C 231.704,390.304 228.204,390.804 224.5,390C 220.518,387.309 220.518,384.809 224.5,382.5 Z"/></g>
<g><path style="opacity:1" fill="#f8bfa7" d="M 249.5,392.5 C 249.433,393.959 249.766,395.292 250.5,396.5C 231.167,396.5 211.833,396.5 192.5,396.5C 192.5,395.833 192.167,395.5 191.5,395.5C 191.167,394.833 190.833,394.167 190.5,393.5C 209.993,392.503 229.66,392.17 249.5,392.5 Z"/></g>
<g><path style="opacity:1" fill="#6bcdc0" d="M 259.5,394.5 C 257.431,397.573 254.764,399.906 251.5,401.5C 232.393,402.078 213.393,401.078 194.5,398.5C 193.5,398.167 192.833,397.5 192.5,396.5C 211.833,396.5 231.167,396.5 250.5,396.5C 253.739,396.587 256.739,395.92 259.5,394.5 Z"/></g>
<g><path style="opacity:1" fill="#a7d6d1" d="M 261.5,388.5 C 263.003,396.325 260.003,402.158 252.5,406C 237.686,412.802 222.353,414.135 206.5,410C 201.508,407.839 196.841,405.172 192.5,402C 191.242,400.259 190.242,398.426 189.5,396.5C 189.833,396.5 190.167,396.5 190.5,396.5C 197.034,404.104 205.367,408.604 215.5,410C 229.449,411.677 242.449,409.011 254.5,402C 257.118,399.894 259.118,397.394 260.5,394.5C 261.341,392.621 261.675,390.621 261.5,388.5 Z"/></g>
<g><path style="opacity:1" fill="#38dec5" d="M 259.5,394.5 C 259.833,394.5 260.167,394.5 260.5,394.5C 259.118,397.394 257.118,399.894 254.5,402C 242.449,409.011 229.449,411.677 215.5,410C 205.367,408.604 197.034,404.104 190.5,396.5C 190.5,395.833 190.833,395.5 191.5,395.5C 192.167,395.5 192.5,395.833 192.5,396.5C 192.833,397.5 193.5,398.167 194.5,398.5C 197.256,401.389 200.589,403.556 204.5,405C 216.778,408.774 229.111,409.107 241.5,406C 245.229,405.156 248.563,403.656 251.5,401.5C 254.764,399.906 257.431,397.573 259.5,394.5 Z"/></g>
<g><path style="opacity:1" fill="#7ef1e5" d="M 194.5,398.5 C 213.393,401.078 232.393,402.078 251.5,401.5C 248.563,403.656 245.229,405.156 241.5,406C 229.111,409.107 216.778,408.774 204.5,405C 200.589,403.556 197.256,401.389 194.5,398.5 Z"/></g>
</svg>
